<svg width="17" height="17" viewBox="0 0 17 17" fill="none" xmlns="http://www.w3.org/2000/svg">
<path d="M4 4.5H15.5L13.5 11H5L4 4.5Z" fill="white"/>
<path d="M0 0V1.19335H2.48993L4.1924 11.3739V13.2249C3.50089 13.4751 2.99892 14.1338 2.99892 14.9036C2.99892 15.8841 3.80833 16.6894 4.79383 16.6894C5.77932 16.6894 6.5899 15.8841 6.5899 14.9036C6.5899 14.6934 6.54577 14.4935 6.47757 14.3052H12.0975C12.0286 14.494 11.9805 14.6927 11.9805 14.9036C11.9805 15.8841 12.7945 16.6894 13.78 16.6894C14.7655 16.6894 15.5761 15.8841 15.5761 14.9036C15.5761 14.6932 15.531 14.4936 15.4626 14.3052H16.7743V13.112H5.39173V11.9199H13.78C14.0365 11.9194 14.2642 11.7565 14.3464 11.5147L16.7439 4.36104C16.872 3.97624 16.585 3.57922 16.1776 3.57757H4.10348L3.58631 0.497195C3.53794 0.21116 3.29046 0.00128408 2.99892 0C1.99929 0 0 0 0 0ZM4.30356 4.76955H15.3421L13.3471 10.7278H5.30398L4.30356 4.76955ZM4.79383 14.3052C5.13178 14.3052 5.39174 14.5674 5.39174 14.9036C5.39174 15.2399 5.13178 15.4973 4.79383 15.4973C4.45587 15.4973 4.1924 15.2399 4.1924 14.9036C4.1924 14.5674 4.45587 14.3052 4.79383 14.3052ZM13.7801 14.3052C14.118 14.3052 14.378 14.5674 14.378 14.9036C14.378 15.2399 14.118 15.4973 13.7801 15.4973C13.4421 15.4973 13.1786 15.2399 13.1786 14.9036C13.1786 14.5674 13.4421 14.3052 13.7801 14.3052Z" fill="white"/>
</svg>
