<svg width="18" height="17" viewBox="0 0 18 17" fill="none" xmlns="http://www.w3.org/2000/svg">
<path d="M0.761719 0.12793V1.32128H3.25165L4.95412 11.5018V13.3528C4.26261 13.603 3.76064 14.2617 3.76064 15.0315C3.76064 16.012 4.57005 16.8174 5.55554 16.8174C6.54104 16.8174 7.35162 16.012 7.35162 15.0315C7.35162 14.8214 7.30749 14.6214 7.23929 14.4331H12.8592C12.7903 14.6219 12.7422 14.8207 12.7422 15.0315C12.7422 16.012 13.5563 16.8174 14.5418 16.8174C15.5273 16.8174 16.3378 16.012 16.3378 15.0315C16.3378 14.8211 16.2927 14.6215 16.2243 14.4331H17.536V13.2399H6.15344V12.0478H14.5418C14.7982 12.0473 15.0259 11.8844 15.1081 11.6426L17.5056 4.48897C17.6337 4.10417 17.3467 3.70715 16.9393 3.7055H4.8652L4.34803 0.625124C4.29966 0.339089 4.05217 0.129214 3.76064 0.12793C2.76101 0.12793 0.761725 0.12793 0.761725 0.12793H0.761719ZM5.06528 4.89748H16.1038L14.1088 10.8557H6.0657L5.06528 4.89748ZM5.55554 14.4331C5.8935 14.4331 6.15346 14.6953 6.15346 15.0315C6.15346 15.3678 5.8935 15.6253 5.55554 15.6253C5.21759 15.6253 4.95412 15.3678 4.95412 15.0315C4.95412 14.6953 5.21759 14.4331 5.55554 14.4331ZM14.5418 14.4331C14.8797 14.4331 15.1397 14.6953 15.1397 15.0315C15.1397 15.3678 14.8797 15.6253 14.5418 15.6253C14.2038 15.6253 13.9404 15.3678 13.9404 15.0315C13.9404 14.6953 14.2038 14.4331 14.5418 14.4331Z" fill="white"/>
</svg>
