<svg width="301" height="102" viewBox="0 0 301 102" fill="none" xmlns="http://www.w3.org/2000/svg">
<g filter="url(#filter0_d_1001_479)">
<path d="M6 2.93836L245.75 2L280 38.5959L245.75 77.0685H6V2.93836Z" fill="black"/>
</g>
<path d="M224.168 3.4043H215.254L249.973 39.0618L215.254 76.1269H224.168L258.887 39.0618L224.168 3.4043Z" fill="#E8042F"/>
<path d="M241.996 3.4043H233.082L267.801 39.0618L233.082 76.1269H241.996L276.716 39.0618L241.996 3.4043Z" fill="#E8042F"/>
<path d="M64.28 41.48V39.12H70.88V47H68.74L68.6 45.66C67.7733 46.7667 66.42 47.32 64.54 47.32C62.42 47.32 60.7467 46.6333 59.52 45.26C58.2933 43.8867 57.68 42.0933 57.68 39.88C57.68 37.72 58.3267 35.9467 59.62 34.56C60.9133 33.1733 62.6533 32.48 64.84 32.48C66.0667 32.48 67.14 32.6867 68.06 33.1C68.9933 33.5 69.9333 34.18 70.88 35.14L69.12 36.96C68.2933 36.2133 67.56 35.6933 66.92 35.4C66.2933 35.0933 65.5933 34.94 64.82 34.94C63.5133 34.94 62.4733 35.38 61.7 36.26C60.9267 37.1267 60.54 38.3333 60.54 39.88C60.54 41.4667 60.9133 42.7 61.66 43.58C62.4067 44.4467 63.44 44.88 64.76 44.88C65.88 44.88 66.7533 44.6 67.38 44.04C68.02 43.4667 68.34 42.6867 68.34 41.7V41.48H64.28ZM78.0981 45.12C78.6715 45.12 79.1648 45.02 79.5781 44.82C79.9915 44.6067 80.5115 44.24 81.1381 43.72L82.5981 45.32C81.8915 46.04 81.1781 46.5533 80.4581 46.86C79.7381 47.1667 78.9315 47.32 78.0381 47.32C76.3981 47.32 75.0915 46.8333 74.1181 45.86C73.1581 44.8867 72.6781 43.58 72.6781 41.94C72.6781 40.3267 73.1448 39.0067 74.0781 37.98C75.0115 36.9533 76.2581 36.44 77.8181 36.44C79.3381 36.44 80.5115 36.8867 81.3381 37.78C82.1781 38.6733 82.5981 39.9267 82.5981 41.54C82.5981 41.82 82.5848 42.16 82.5581 42.56H75.2181C75.3381 43.3733 75.6381 44.0067 76.1181 44.46C76.6115 44.9 77.2715 45.12 78.0981 45.12ZM77.7381 38.48C76.4181 38.48 75.5981 39.22 75.2781 40.7H80.0581C80.0048 40.0067 79.7715 39.4667 79.3581 39.08C78.9581 38.68 78.4181 38.48 77.7381 38.48ZM90.1928 44.8L90.4928 46.86C89.7461 47.1133 88.9795 47.24 88.1928 47.24C87.1928 47.24 86.4595 47.0067 85.9928 46.54C85.5261 46.06 85.2928 45.3333 85.2928 44.36V38.76H83.4728V36.78H85.2928V33.62H87.8928V36.78H90.3328V38.76H87.8928V44.04C87.8928 44.3867 87.9728 44.6333 88.1328 44.78C88.2928 44.9133 88.5528 44.98 88.9128 44.98C89.2728 44.98 89.6995 44.92 90.1928 44.8ZM104.871 32.8H107.851L102.831 41.04V47H100.031V41.02L95.0311 32.8H98.1111L101.491 38.56L104.871 32.8ZM111.807 36.44C113.353 36.44 114.62 36.9467 115.607 37.96C116.607 38.96 117.107 40.2667 117.107 41.88C117.107 43.4933 116.607 44.8067 115.607 45.82C114.62 46.82 113.353 47.32 111.807 47.32C110.247 47.32 108.967 46.82 107.967 45.82C106.98 44.8067 106.487 43.4933 106.487 41.88C106.487 40.2667 106.98 38.96 107.967 37.96C108.967 36.9467 110.247 36.44 111.807 36.44ZM111.807 38.64C110.993 38.64 110.34 38.94 109.847 39.54C109.367 40.1267 109.127 40.9067 109.127 41.88C109.127 42.8667 109.367 43.6533 109.847 44.24C110.34 44.8267 110.993 45.12 111.807 45.12C112.607 45.12 113.247 44.8267 113.727 44.24C114.22 43.6533 114.467 42.8667 114.467 41.88C114.467 40.9067 114.22 40.1267 113.727 39.54C113.247 38.94 112.607 38.64 111.807 38.64ZM125.243 36.78H127.843V47H125.463V45.92C124.89 46.8533 123.89 47.32 122.463 47.32C121.276 47.32 120.376 47.0333 119.763 46.46C119.15 45.8867 118.843 45.0933 118.843 44.08V36.78H121.443V43.36C121.443 43.8933 121.59 44.3133 121.883 44.62C122.176 44.9133 122.596 45.06 123.143 45.06C123.796 45.06 124.31 44.88 124.683 44.52C125.056 44.1467 125.243 43.62 125.243 42.94V36.78ZM135.112 36.66C135.526 36.66 136.066 36.76 136.732 36.96L136.272 39.22C135.779 39.0867 135.346 39.02 134.972 39.02C134.279 39.02 133.732 39.28 133.332 39.8C132.932 40.32 132.732 41.04 132.732 41.96V47H130.132V36.78H132.552V38.28C133.086 37.2 133.939 36.66 135.112 36.66ZM141.748 36.44C142.641 36.44 143.421 36.56 144.088 36.8C144.754 37.04 145.441 37.4533 146.148 38.04L144.748 39.74C144.161 39.2733 143.641 38.96 143.188 38.8C142.748 38.6267 142.248 38.54 141.688 38.54C141.168 38.54 140.748 38.6333 140.428 38.82C140.121 39.0067 139.968 39.2533 139.968 39.56C139.968 39.92 140.261 40.1867 140.848 40.36C141.128 40.44 141.628 40.56 142.348 40.72C143.828 41.0533 144.854 41.4467 145.428 41.9C146.014 42.3533 146.308 43.0467 146.308 43.98C146.308 44.9933 145.914 45.8067 145.128 46.42C144.341 47.02 143.274 47.32 141.928 47.32C140.941 47.32 140.068 47.1733 139.308 46.88C138.561 46.5867 137.788 46.0867 136.988 45.38L138.488 43.7C139.234 44.3133 139.848 44.7133 140.328 44.9C140.808 45.1133 141.361 45.22 141.988 45.22C142.521 45.22 142.948 45.1267 143.268 44.94C143.601 44.7533 143.768 44.4867 143.768 44.14C143.768 43.6867 143.428 43.36 142.748 43.16C142.654 43.1467 142.441 43.1 142.108 43.02C141.788 42.94 141.501 42.8733 141.248 42.82C139.794 42.5 138.801 42.12 138.268 41.68C137.748 41.2267 137.488 40.5467 137.488 39.64C137.488 38.7333 137.868 37.9733 138.628 37.36C139.401 36.7467 140.441 36.44 141.748 36.44ZM161.958 32.8H164.678V47H161.698L158.098 41.24L157.698 40.6C156.578 38.7867 155.778 37.4467 155.298 36.58C155.378 38.2467 155.418 40.0867 155.418 42.1V47H152.698V32.8H155.738L159.558 38.92L160.098 39.82C160.924 41.1533 161.578 42.24 162.058 43.08C161.991 41.68 161.958 39.9733 161.958 37.96V32.8ZM172.041 36.44C173.588 36.44 174.854 36.9467 175.841 37.96C176.841 38.96 177.341 40.2667 177.341 41.88C177.341 43.4933 176.841 44.8067 175.841 45.82C174.854 46.82 173.588 47.32 172.041 47.32C170.481 47.32 169.201 46.82 168.201 45.82C167.214 44.8067 166.721 43.4933 166.721 41.88C166.721 40.2667 167.214 38.96 168.201 37.96C169.201 36.9467 170.481 36.44 172.041 36.44ZM172.041 38.64C171.228 38.64 170.574 38.94 170.081 39.54C169.601 40.1267 169.361 40.9067 169.361 41.88C169.361 42.8667 169.601 43.6533 170.081 44.24C170.574 44.8267 171.228 45.12 172.041 45.12C172.841 45.12 173.481 44.8267 173.961 44.24C174.454 43.6533 174.701 42.8667 174.701 41.88C174.701 40.9067 174.454 40.1267 173.961 39.54C173.481 38.94 172.841 38.64 172.041 38.64ZM190.7 36.76H193.38L190.54 47H187.46L186.7 44.22C186.434 43.22 186.1 41.8333 185.7 40.06C185.394 41.58 185.08 42.9667 184.76 44.22L184.04 47H180.94L178.1 36.76H180.84L181.66 40.12C181.9 41.04 182.227 42.5467 182.64 44.64C183.067 42.6533 183.414 41.1467 183.68 40.12L184.56 36.76H186.96L187.84 40.12C188.107 41.1333 188.46 42.6533 188.9 44.68C189.314 42.64 189.64 41.12 189.88 40.12L190.7 36.76Z" fill="white"/>
<defs>
<filter id="filter0_d_1001_479" x="0.369864" y="0.123288" width="300.274" height="101.342" filterUnits="userSpaceOnUse" color-interpolation-filters="sRGB">
<feFlood flood-opacity="0" result="BackgroundImageFix"/>
<feColorMatrix in="SourceAlpha" type="matrix" values="0 0 0 0 0 0 0 0 0 0 0 0 0 0 0 0 0 0 127 0" result="hardAlpha"/>
<feOffset dx="7.50685" dy="11.2603"/>
<feGaussianBlur stdDeviation="6.56849"/>
<feComposite in2="hardAlpha" operator="out"/>
<feColorMatrix type="matrix" values="0 0 0 0 0 0 0 0 0 0 0 0 0 0 0 0 0 0 0.1 0"/>
<feBlend mode="normal" in2="BackgroundImageFix" result="effect1_dropShadow_1001_479"/>
<feBlend mode="normal" in="SourceGraphic" in2="effect1_dropShadow_1001_479" result="shape"/>
</filter>
</defs>
</svg>
