<svg width="206" height="70" viewBox="0 0 206 70" fill="none" xmlns="http://www.w3.org/2000/svg">
<g filter="url(#filter0_d_1001_330)">
<path d="M4 2.64041L167.625 2L191 26.976L167.625 53.2329H4V2.64041Z" fill="black"/>
</g>
<path d="M152.896 2.64062H146.812L170.508 26.9762L146.812 52.2725H152.896L176.592 26.9762L152.896 2.64062Z" fill="white"/>
<path d="M165.062 2.64062H158.979L182.674 26.9762L158.979 52.2725H165.062L188.758 26.9762L165.062 2.64062Z" fill="white"/>
<path d="M34.8027 32.7334C34.1673 33.124 33.3861 33.3193 32.459 33.3193C30.9329 33.3193 29.6829 32.7907 28.709 31.7334C27.6934 30.6709 27.1855 29.2178 27.1855 27.374C27.1855 25.5094 27.6986 24.0146 28.7246 22.8896C29.7507 21.7646 31.1074 21.2021 32.7949 21.2021C34.2585 21.2021 35.4329 21.5745 36.3184 22.3193C37.209 23.0589 37.7194 23.9834 37.8496 25.0928H35.4824C35.3001 24.3063 34.8548 23.7568 34.1465 23.4443C33.7507 23.2725 33.3105 23.1865 32.8262 23.1865C31.8991 23.1865 31.1361 23.5381 30.5371 24.2412C29.9434 24.9391 29.6465 25.9912 29.6465 27.3975C29.6465 28.8141 29.9694 29.8167 30.6152 30.4053C31.2611 30.9938 31.9954 31.2881 32.8184 31.2881C33.6257 31.2881 34.2871 31.0563 34.8027 30.5928C35.3184 30.124 35.6361 29.512 35.7559 28.7568H33.0918V26.835H37.8887V33.0146H36.2949L36.0527 31.5771C35.5892 32.124 35.1725 32.5094 34.8027 32.7334ZM47.3027 30.5146C47.2454 31.0199 46.9824 31.5329 46.5137 32.0537C45.7845 32.8818 44.7637 33.2959 43.4512 33.2959C42.3678 33.2959 41.4121 32.9469 40.584 32.249C39.7559 31.5511 39.3418 30.4157 39.3418 28.8428C39.3418 27.3688 39.7142 26.2386 40.459 25.4521C41.209 24.6657 42.1803 24.2725 43.373 24.2725C44.0814 24.2725 44.7194 24.4053 45.2871 24.6709C45.8548 24.9365 46.3236 25.3558 46.6934 25.9287C47.0267 26.4339 47.2428 27.0199 47.3418 27.6865C47.3991 28.0771 47.4225 28.6396 47.4121 29.374H41.584C41.6152 30.2282 41.8835 30.8271 42.3887 31.1709C42.696 31.3844 43.0658 31.4912 43.498 31.4912C43.9564 31.4912 44.3288 31.361 44.6152 31.1006C44.7715 30.96 44.9095 30.7646 45.0293 30.5146H47.3027ZM45.0996 27.9053C45.0632 27.3167 44.8835 26.8714 44.5605 26.5693C44.2428 26.262 43.847 26.1084 43.373 26.1084C42.8574 26.1084 42.4564 26.2699 42.1699 26.5928C41.8887 26.9157 41.7116 27.3532 41.6387 27.9053H45.0996ZM52.8184 31.4287V33.0928L51.7637 33.1318C50.7116 33.1683 49.9928 32.986 49.6074 32.585C49.3574 32.3298 49.2324 31.9365 49.2324 31.4053V26.1631H48.0449V24.5771H49.2324V22.2021H51.4355V24.5771H52.8184V26.1631H51.4355V30.6631C51.4355 31.012 51.4798 31.2308 51.5684 31.3193C51.6569 31.4027 51.9277 31.4443 52.3809 31.4443C52.4486 31.4443 52.5189 31.4443 52.5918 31.4443C52.6699 31.4391 52.7454 31.4339 52.8184 31.4287ZM67.8965 21.499L64.0449 28.6865V33.0146H61.6387V28.6865L57.6543 21.499H60.4902L62.8809 26.5146L65.1699 21.499H67.8965ZM75.0059 25.5771C75.7246 26.4782 76.084 27.5433 76.084 28.7725C76.084 30.0225 75.7246 31.0928 75.0059 31.9834C74.2871 32.8688 73.196 33.3115 71.7324 33.3115C70.2689 33.3115 69.1777 32.8688 68.459 31.9834C67.7402 31.0928 67.3809 30.0225 67.3809 28.7725C67.3809 27.5433 67.7402 26.4782 68.459 25.5771C69.1777 24.6761 70.2689 24.2256 71.7324 24.2256C73.196 24.2256 74.2871 24.6761 75.0059 25.5771ZM71.7246 26.1084C71.0736 26.1084 70.571 26.3402 70.2168 26.8037C69.8678 27.262 69.6934 27.9183 69.6934 28.7725C69.6934 29.6266 69.8678 30.2855 70.2168 30.749C70.571 31.2126 71.0736 31.4443 71.7246 31.4443C72.3757 31.4443 72.8757 31.2126 73.2246 30.749C73.5736 30.2855 73.748 29.6266 73.748 28.7725C73.748 27.9183 73.5736 27.262 73.2246 26.8037C72.8757 26.3402 72.3757 26.1084 71.7246 26.1084ZM83.1465 31.8115C83.1257 31.8376 83.0736 31.9157 82.9902 32.0459C82.9069 32.1761 82.8079 32.2907 82.6934 32.3896C82.3444 32.7021 82.0059 32.9157 81.6777 33.0303C81.3548 33.1449 80.9746 33.2021 80.5371 33.2021C79.2767 33.2021 78.4277 32.749 77.9902 31.8428C77.7454 31.3428 77.623 30.6058 77.623 29.6318V24.499H79.9043V29.6318C79.9043 30.1162 79.9616 30.4808 80.0762 30.7256C80.2793 31.1579 80.6777 31.374 81.2715 31.374C82.0319 31.374 82.5527 31.0667 82.834 30.4521C82.9798 30.1188 83.0527 29.6787 83.0527 29.1318V24.499H85.3105V33.0146H83.1465V31.8115ZM91.748 26.5537C90.8522 26.5537 90.2507 26.8454 89.9434 27.4287C89.7715 27.7568 89.6855 28.262 89.6855 28.9443V33.0146H87.4434V24.499H89.5684V25.9834C89.9121 25.4157 90.2116 25.0277 90.4668 24.8193C90.8835 24.4704 91.4251 24.2959 92.0918 24.2959C92.1335 24.2959 92.1673 24.2985 92.1934 24.3037C92.2246 24.3037 92.2897 24.3063 92.3887 24.3115V26.5928C92.248 26.5771 92.123 26.5667 92.0137 26.5615C91.9043 26.5563 91.8158 26.5537 91.748 26.5537ZM99.5684 24.8896C100.235 25.3167 100.618 26.0511 100.717 27.0928H98.4902C98.459 26.8063 98.3783 26.5798 98.248 26.4131C98.0033 26.111 97.5866 25.96 96.998 25.96C96.5137 25.96 96.1673 26.0355 95.959 26.1865C95.7559 26.3376 95.6543 26.5146 95.6543 26.7178C95.6543 26.973 95.7637 27.1579 95.9824 27.2725C96.2012 27.3923 96.9746 27.598 98.3027 27.8896C99.1882 28.098 99.8522 28.4131 100.295 28.835C100.732 29.262 100.951 29.7959 100.951 30.4365C100.951 31.2803 100.636 31.9704 100.006 32.5068C99.3809 33.0381 98.4121 33.3037 97.0996 33.3037C95.7611 33.3037 94.7715 33.0225 94.1309 32.46C93.4954 31.8923 93.1777 31.1709 93.1777 30.2959H95.4355C95.4824 30.6917 95.584 30.973 95.7402 31.1396C96.0163 31.4365 96.5267 31.585 97.2715 31.585C97.709 31.585 98.0553 31.5199 98.3105 31.3896C98.571 31.2594 98.7012 31.0641 98.7012 30.8037C98.7012 30.5537 98.597 30.3636 98.3887 30.2334C98.1803 30.1032 97.4069 29.8792 96.0684 29.5615C95.1048 29.3219 94.4251 29.0225 94.0293 28.6631C93.6335 28.3089 93.4355 27.7985 93.4355 27.1318C93.4355 26.3454 93.7428 25.6709 94.3574 25.1084C94.9772 24.5407 95.847 24.2568 96.9668 24.2568C98.0293 24.2568 98.8965 24.4678 99.5684 24.8896ZM116.553 33.0146H114.146L109.443 24.835V33.0146H107.201V21.499H109.725L114.311 29.5381V21.499H116.553V33.0146ZM125.725 25.5771C126.443 26.4782 126.803 27.5433 126.803 28.7725C126.803 30.0225 126.443 31.0928 125.725 31.9834C125.006 32.8688 123.915 33.3115 122.451 33.3115C120.988 33.3115 119.896 32.8688 119.178 31.9834C118.459 31.0928 118.1 30.0225 118.1 28.7725C118.1 27.5433 118.459 26.4782 119.178 25.5771C119.896 24.6761 120.988 24.2256 122.451 24.2256C123.915 24.2256 125.006 24.6761 125.725 25.5771ZM122.443 26.1084C121.792 26.1084 121.29 26.3402 120.936 26.8037C120.587 27.262 120.412 27.9183 120.412 28.7725C120.412 29.6266 120.587 30.2855 120.936 30.749C121.29 31.2126 121.792 31.4443 122.443 31.4443C123.094 31.4443 123.594 31.2126 123.943 30.749C124.292 30.2855 124.467 29.6266 124.467 28.7725C124.467 27.9183 124.292 27.262 123.943 26.8037C123.594 26.3402 123.094 26.1084 122.443 26.1084ZM134.865 33.0146L133.529 26.8115L132.178 33.0146H129.865L127.475 24.499H129.865L131.193 30.6084L132.42 24.499H134.678L135.975 30.6318L137.303 24.499H139.623L137.154 33.0146H134.865Z" fill="white"/>
<defs>
<filter id="filter0_d_1001_330" x="0.157534" y="0.719178" width="204.932" height="69.1639" filterUnits="userSpaceOnUse" color-interpolation-filters="sRGB">
<feFlood flood-opacity="0" result="BackgroundImageFix"/>
<feColorMatrix in="SourceAlpha" type="matrix" values="0 0 0 0 0 0 0 0 0 0 0 0 0 0 0 0 0 0 127 0" result="hardAlpha"/>
<feOffset dx="5.12329" dy="7.68493"/>
<feGaussianBlur stdDeviation="4.48288"/>
<feComposite in2="hardAlpha" operator="out"/>
<feColorMatrix type="matrix" values="0 0 0 0 0 0 0 0 0 0 0 0 0 0 0 0 0 0 0.1 0"/>
<feBlend mode="normal" in2="BackgroundImageFix" result="effect1_dropShadow_1001_330"/>
<feBlend mode="normal" in="SourceGraphic" in2="effect1_dropShadow_1001_330" result="shape"/>
</filter>
</defs>
</svg>
