<svg width="394" height="300" viewBox="0 0 394 300" fill="none" xmlns="http://www.w3.org/2000/svg">
<mask id="path-1-inside-1_1001_165" fill="white">
<path d="M0.0985 122.48C45.7897 182.424 105.791 229.945 174.606 260.693C243.421 291.44 318.851 304.43 393.987 298.473L378.077 97.792C336.516 101.087 294.793 93.9015 256.729 76.894C218.664 59.8865 185.476 33.6004 160.202 0.443261L0.0985 122.48Z"/>
</mask>
<path d="M0.0985 122.48C45.7897 182.424 105.791 229.945 174.606 260.693C243.421 291.44 318.851 304.43 393.987 298.473L378.077 97.792C336.516 101.087 294.793 93.9015 256.729 76.894C218.664 59.8865 185.476 33.6004 160.202 0.443261L0.0985 122.48Z" fill="#424242" stroke="#9D9D9D" stroke-width="3.21786" mask="url(#path-1-inside-1_1001_165)"/>
</svg>
