<svg width="17" height="15" viewBox="0 0 17 15" fill="none" xmlns="http://www.w3.org/2000/svg">
<path d="M8.32331 14.3437C8.2165 14.3434 8.11281 14.3077 8.02843 14.2422C5.34061 12.1538 3.48912 10.3555 2.19355 8.58135C0.540257 6.31411 0.16319 4.2209 1.07202 2.35974C1.7198 1.03033 3.58097 -0.0573609 5.75636 0.575919C6.79355 0.875513 7.69849 1.518 8.32331 2.39841C8.94814 1.518 9.85308 0.875513 10.8903 0.575919C13.0608 -0.0476926 14.9268 1.03033 15.5746 2.35974C16.4834 4.2209 16.1064 6.31411 14.4531 8.58135C13.1575 10.3555 11.306 12.1538 8.6182 14.2422C8.53382 14.3077 8.43012 14.3434 8.32331 14.3437ZM4.5188 1.36389C4.00118 1.34375 3.48785 1.46495 3.0339 1.71449C2.57996 1.96403 2.20254 2.33249 1.94217 2.78031C1.19287 4.31759 1.53127 6.02889 2.97669 8.00608C4.51279 9.98741 6.31152 11.7504 8.32331 13.2463C10.3348 11.7518 12.1335 9.99054 13.6699 8.01091C15.1202 6.02889 15.4538 4.31759 14.7045 2.78515C14.221 1.81831 12.7708 1.04967 11.1562 1.50408C10.6384 1.65709 10.1585 1.91679 9.74718 2.26647C9.33588 2.61616 9.00236 3.04808 8.76806 3.53445C8.73164 3.62311 8.66968 3.69895 8.59006 3.75232C8.51044 3.80569 8.41675 3.83418 8.3209 3.83418C8.22504 3.83418 8.13135 3.80569 8.05173 3.75232C7.97211 3.69895 7.91015 3.62311 7.87373 3.53445C7.6412 3.04687 7.30824 2.61393 6.89669 2.26403C6.48514 1.91413 6.00428 1.65515 5.48564 1.50408C5.17141 1.41282 4.84602 1.36563 4.5188 1.36389Z" fill="white"/>
</svg>
