<svg width="218" height="73" viewBox="0 0 218 73" fill="none" xmlns="http://www.w3.org/2000/svg">
<path d="M59.8304 15.9616L50.6924 20.1316L44.1463 49.6919L33.1652 33.6029L27.5263 52.3508L10.8069 25.3207L1.17014 23.9648L27.5568 17.7503L19.1252 23.901L26.4421 36.9992L31.5039 19.4078L43.5304 35.0684L46.7099 20.2582L34.9666 16.7824L59.8304 15.9616Z" fill="black"/>
<path d="M59.8304 15.9616L60.2456 16.8713L59.7974 14.9621L59.8304 15.9616ZM50.6924 20.1316L50.2772 19.2218L49.8238 19.4287L49.716 19.9154L50.6924 20.1316ZM44.1463 49.6919L43.3203 50.2557L44.623 52.1643L45.1226 49.9082L44.1463 49.6919ZM33.1652 33.6029L33.9911 33.0392L32.8107 31.3096L32.2076 33.3149L33.1652 33.6029ZM27.5263 52.3508L26.6759 52.8768L27.8443 54.7657L28.484 52.6388L27.5263 52.3508ZM10.8069 25.3207L11.6574 24.7946L11.4106 24.3957L10.9462 24.3304L10.8069 25.3207ZM1.17014 23.9648L0.940889 22.9915L1.03082 24.9551L1.17014 23.9648ZM27.5568 17.7503L28.1461 18.5582L27.3275 16.7769L27.5568 17.7503ZM19.1252 23.901L18.5358 23.0931L17.8201 23.6153L18.2521 24.3887L19.1252 23.901ZM26.4421 36.9992L25.5691 37.4869L26.7395 39.5821L27.4032 37.2758L26.4421 36.9992ZM31.5039 19.4078L32.297 18.7987L31.0906 17.2278L30.5429 19.1313L31.5039 19.4078ZM43.5304 35.0684L42.7373 35.6775L44.0543 37.3924L44.5081 35.2783L43.5304 35.0684ZM46.7099 20.2582L47.6876 20.4681L47.882 19.5623L46.9937 19.2993L46.7099 20.2582ZM34.9666 16.7824L34.9336 15.783L34.6828 17.7413L34.9666 16.7824ZM59.4153 15.0518L50.2772 19.2218L51.1075 21.0413L60.2456 16.8713L59.4153 15.0518ZM49.716 19.9154L43.17 49.4757L45.1226 49.9082L51.6687 20.3478L49.716 19.9154ZM44.9723 49.1282L33.9911 33.0392L32.3392 34.1666L43.3203 50.2557L44.9723 49.1282ZM32.2076 33.3149L26.5687 52.0627L28.484 52.6388L34.1228 33.8909L32.2076 33.3149ZM28.3768 51.8247L11.6574 24.7946L9.95645 25.8467L26.6759 52.8768L28.3768 51.8247ZM10.9462 24.3304L1.30946 22.9746L1.03082 24.9551L10.6676 26.3109L10.9462 24.3304ZM1.39938 24.9382L27.786 18.7237L27.3275 16.7769L0.940889 22.9915L1.39938 24.9382ZM26.9674 16.9424L18.5358 23.0931L19.7145 24.7089L28.1461 18.5582L26.9674 16.9424ZM18.2521 24.3887L25.5691 37.4869L27.3152 36.5116L19.9982 23.4133L18.2521 24.3887ZM27.4032 37.2758L32.4649 19.6843L30.5429 19.1313L25.4811 36.7227L27.4032 37.2758ZM30.7107 20.0169L42.7373 35.6775L44.3235 34.4593L32.297 18.7987L30.7107 20.0169ZM44.5081 35.2783L47.6876 20.4681L45.7321 20.0483L42.5527 34.8585L44.5081 35.2783ZM46.9937 19.2993L35.2504 15.8235L34.6828 17.7413L46.426 21.2171L46.9937 19.2993ZM34.9996 17.7819L59.8634 16.961L59.7974 14.9621L34.9336 15.783L34.9996 17.7819Z" fill="#D81E2E"/>
<path d="M213.33 45.6694L179.64 50.2728L189.591 44.2811L185.869 18.7189L174.681 15.601L204.036 12.809L194.494 17.9687L196.41 43.5649L207.12 42.9315L211.629 27.2026L213.33 45.6694Z" fill="black"/>
<path d="M213.33 45.6694L213.465 46.6602L214.413 46.5306L214.325 45.5777L213.33 45.6694ZM179.64 50.2728L179.124 49.4161L179.775 51.2636L179.64 50.2728ZM189.591 44.2811L190.107 45.1378L190.677 44.7949L190.581 44.137L189.591 44.2811ZM185.869 18.7189L186.859 18.5748L186.765 17.9304L186.137 17.7556L185.869 18.7189ZM174.681 15.601L174.587 14.6055L174.413 16.5643L174.681 15.601ZM204.036 12.809L204.512 13.6886L203.942 11.8135L204.036 12.809ZM194.494 17.9687L194.018 17.089L193.448 17.3972L193.497 18.0433L194.494 17.9687ZM196.41 43.5649L195.413 43.6395L195.486 44.6212L196.469 44.5631L196.41 43.5649ZM207.12 42.9315L207.179 43.9297L207.886 43.8879L208.081 43.2071L207.12 42.9315ZM211.629 27.2026L212.625 27.1109L210.667 26.927L211.629 27.2026ZM213.194 44.6786L179.505 49.282L179.775 51.2636L213.465 46.6602L213.194 44.6786ZM180.156 51.1295L190.107 45.1378L189.076 43.4244L179.124 49.4161L180.156 51.1295ZM190.581 44.137L186.859 18.5748L184.879 18.863L188.602 44.4252L190.581 44.137ZM186.137 17.7556L174.95 14.6377L174.413 16.5643L185.601 19.6822L186.137 17.7556ZM174.776 16.5965L204.131 13.8045L203.942 11.8135L174.587 14.6055L174.776 16.5965ZM203.561 11.9293L194.018 17.089L194.969 18.8483L204.512 13.6886L203.561 11.9293ZM193.497 18.0433L195.413 43.6395L197.407 43.4902L195.491 17.894L193.497 18.0433ZM196.469 44.5631L207.179 43.9297L207.061 41.9332L196.351 42.5666L196.469 44.5631ZM208.081 43.2071L212.59 27.4782L210.667 26.927L206.158 42.6559L208.081 43.2071ZM210.633 27.2943L212.334 45.7611L214.325 45.5777L212.625 27.1109L210.633 27.2943Z" fill="#D81E2E"/>
<circle cx="115.954" cy="28.9616" r="25" transform="rotate(-10 115.954 28.9616)" fill="black"/>
<circle cx="116.939" cy="28.7875" r="15" transform="rotate(-10 116.939 28.7875)" fill="#D81E2E"/>
<rect x="104.6" y="27.917" width="19" height="5" transform="rotate(-10 104.6 27.917)" fill="black"/>
<path d="M109.291 37.2441L128.002 33.9448L128.697 37.8841C128.793 38.428 128.43 38.9466 127.886 39.0425L115.083 41.2999C112.364 41.7795 109.771 39.9636 109.291 37.2441V37.2441Z" fill="black"/>
<path d="M106.86 23.4572C106.381 20.7378 108.197 18.1445 110.916 17.665L124.704 15.2339L125.572 20.1579L106.86 23.4572V23.4572Z" fill="black"/>
<path d="M74.759 56L155 53V56L47 58L74.759 56Z" fill="black"/>
<path d="M34.7028 53L109 50V53L9 55L34.7028 53Z" fill="black"/>
<circle cx="154.954" cy="30.9616" r="25" transform="rotate(-10 154.954 30.9616)" fill="black"/>
<circle cx="155.939" cy="30.7875" r="15" transform="rotate(-10 155.939 30.7875)" fill="#D81E2E"/>
<rect x="143.6" y="29.917" width="19" height="5" transform="rotate(-10 143.6 29.917)" fill="black"/>
<path d="M148.291 39.2441L167.002 35.9448L167.697 39.8841C167.793 40.428 167.43 40.9466 166.886 41.0425L154.083 43.2999C151.364 43.7795 148.771 41.9636 148.291 39.2441V39.2441Z" fill="black"/>
<path d="M145.86 25.4572C145.381 22.7378 147.197 20.1445 149.916 19.665L163.704 17.2339L164.572 22.1579L145.86 25.4572V25.4572Z" fill="black"/>
<path d="M95.1669 48.3191L70.8638 50.8412L79.0727 46.499L78.1268 39.0863L66.3645 41.544L67.2676 51.5237L77.7668 53.9244L51.7153 56.6279C53.141 55.8909 54.5943 55.1363 56.0752 54.364C57.5561 53.5918 59.014 52.8809 60.4487 52.2313L57.2409 28.1319C55.6943 27.7033 54.1707 27.2134 52.6703 26.6623C51.1376 26.0849 49.608 25.5368 48.0815 25.0178L72.3681 22.7625L65.1736 27.0878L65.962 36.8142L77.6327 35.6031L75.9313 22.6136L66.6016 19.5613L91.1067 17.2834L83.8248 21.6177L85.673 45.814L95.1669 48.3191Z" fill="black"/>
<path d="M95.1669 48.3191L95.2701 49.3138L95.422 47.3522L95.1669 48.3191ZM70.8638 50.8412L70.3962 49.9572L70.967 51.8358L70.8638 50.8412ZM79.0727 46.499L79.5403 47.3829L80.1523 47.0592L80.0647 46.3724L79.0727 46.499ZM78.1268 39.0863L79.1187 38.9597L78.9817 37.8861L77.9222 38.1075L78.1268 39.0863ZM66.3645 41.544L66.16 40.5652L65.2883 40.7473L65.3686 41.6342L66.3645 41.544ZM67.2676 51.5237L66.2717 51.6138L66.3371 52.3367L67.0447 52.4985L67.2676 51.5237ZM77.7668 53.9244L77.87 54.9191L77.9897 52.9496L77.7668 53.9244ZM51.7153 56.6279L51.2561 55.7396L51.8185 57.6226L51.7153 56.6279ZM60.4487 52.2313L60.8612 53.1423L61.538 52.8358L61.44 52.0993L60.4487 52.2313ZM57.2409 28.1319L58.2322 28L58.145 27.3447L57.508 27.1682L57.2409 28.1319ZM52.6703 26.6623L52.3178 27.5981L52.3254 27.6009L52.6703 26.6623ZM48.0815 25.0178L47.989 24.022L47.7596 25.9645L48.0815 25.0178ZM72.3681 22.7625L72.8833 23.6195L72.2756 21.7668L72.3681 22.7625ZM65.1736 27.0878L64.6583 26.2307L64.1267 26.5503L64.1768 27.1686L65.1736 27.0878ZM65.962 36.8142L64.9653 36.895L65.0479 37.9144L66.0652 37.8089L65.962 36.8142ZM77.6327 35.6031L77.736 36.5977L78.7577 36.4917L78.6243 35.4732L77.6327 35.6031ZM75.9313 22.6136L76.9228 22.4837L76.841 21.8591L76.2422 21.6632L75.9313 22.6136ZM66.6016 19.5613L66.509 18.5656L66.2906 20.5117L66.6016 19.5613ZM91.1067 17.2834L91.6182 18.1427L91.0141 16.2877L91.1067 17.2834ZM83.8248 21.6177L83.3133 20.7584L82.7804 21.0756L82.8277 21.6939L83.8248 21.6177ZM85.673 45.814L84.6759 45.8902L84.7301 46.5994L85.4179 46.7809L85.673 45.814ZM95.0637 47.3245L70.7606 49.8465L70.967 51.8358L95.2701 49.3138L95.0637 47.3245ZM71.3314 51.7251L79.5403 47.3829L78.6052 45.615L70.3962 49.9572L71.3314 51.7251ZM80.0647 46.3724L79.1187 38.9597L77.1348 39.2129L78.0808 46.6256L80.0647 46.3724ZM77.9222 38.1075L66.16 40.5652L66.569 42.5229L78.3313 40.0652L77.9222 38.1075ZM65.3686 41.6342L66.2717 51.6138L68.2635 51.4335L67.3604 41.4539L65.3686 41.6342ZM67.0447 52.4985L77.5439 54.8993L77.9897 52.9496L67.4905 50.5488L67.0447 52.4985ZM77.6636 52.9298L51.6121 55.6333L51.8185 57.6226L77.87 54.9191L77.6636 52.9298ZM52.1745 57.5162C53.6013 56.7786 55.0556 56.0235 56.5376 55.2507L55.6128 53.4773C54.1329 54.249 52.6806 55.0031 51.2561 55.7396L52.1745 57.5162ZM56.5376 55.2507C58.0031 54.4865 59.4443 53.7838 60.8612 53.1423L60.0363 51.3203C58.5837 51.978 57.1092 52.6971 55.6128 53.4773L56.5376 55.2507ZM61.44 52.0993L58.2322 28L56.2497 28.2639L59.4575 52.3632L61.44 52.0993ZM57.508 27.1682C55.9875 26.7469 54.4899 26.2653 53.0151 25.7236L52.3254 27.6009C53.8516 28.1615 55.4011 28.6598 56.9739 29.0956L57.508 27.1682ZM53.0228 25.7264C51.4802 25.1454 49.9404 24.5935 48.4034 24.071L47.7596 25.9645C49.2757 26.48 50.7951 27.0245 52.3178 27.5981L53.0228 25.7264ZM48.1739 26.0135L72.4605 23.7582L72.2756 21.7668L47.989 24.022L48.1739 26.0135ZM71.8528 21.9054L64.6583 26.2307L65.6888 27.9448L72.8833 23.6195L71.8528 21.9054ZM64.1768 27.1686L64.9653 36.895L66.9587 36.7334L66.1703 27.007L64.1768 27.1686ZM66.0652 37.8089L77.736 36.5977L77.5295 34.6084L65.8588 35.8196L66.0652 37.8089ZM78.6243 35.4732L76.9228 22.4837L74.9398 22.7435L76.6412 35.733L78.6243 35.4732ZM76.2422 21.6632L66.9125 18.6109L66.2906 20.5117L75.6204 23.564L76.2422 21.6632ZM66.6941 20.557L91.1993 18.2791L91.0141 16.2877L66.509 18.5656L66.6941 20.557ZM90.5952 16.4241L83.3133 20.7584L84.3362 22.477L91.6182 18.1427L90.5952 16.4241ZM82.8277 21.6939L84.6759 45.8902L86.6701 45.7379L84.8219 21.5416L82.8277 21.6939ZM85.4179 46.7809L94.9118 49.286L95.422 47.3522L85.9282 44.8471L85.4179 46.7809Z" fill="#D81E2E"/>
</svg>
