<svg width="405" height="38" viewBox="0 0 405 38" fill="none" xmlns="http://www.w3.org/2000/svg">
<path d="M28.8221 26.3612H23.397L26.7876 5.52658H32.2132L28.8221 26.3612ZM18.8331 5.52658L13.6611 19.8568L13.0491 16.771L13.0496 16.7721L11.2242 7.4025C11.2242 7.4025 11.0034 5.52658 8.65069 5.52658H0.10033L0 5.87936C0 5.87936 2.61472 6.4233 5.67479 8.26076L10.3881 26.3618H16.0406L24.6718 5.52658H18.8331V5.52658ZM61.5041 26.3612H66.4855L62.1423 5.52603H57.7813C55.7674 5.52603 55.2769 7.0787 55.2769 7.0787L47.1858 26.3612H52.8411L53.9721 23.2664H60.8687L61.5041 26.3612ZM55.5344 18.9913L58.3849 11.1945L59.9885 18.9913H55.5344ZM47.61 10.5368L48.3842 6.06272C48.3842 6.06272 45.9953 5.1543 43.5048 5.1543C40.8126 5.1543 34.4194 6.33079 34.4194 12.0516C34.4194 17.4342 41.923 17.501 41.923 20.3283C41.923 23.1555 35.1925 22.6489 32.9713 20.8661L32.1647 25.5442C32.1647 25.5442 34.5872 26.7207 38.2882 26.7207C41.9904 26.7207 47.5755 24.8041 47.5755 19.5876C47.5755 14.1705 40.0044 13.6662 40.0044 11.3109C40.005 8.95518 45.2885 9.2578 47.61 10.5368V10.5368Z" fill="#2566AF"/>
<g clip-path="url(#clip0_1001_220)">
<path d="M135.313 24.6012V24.0459H135.172L135.009 24.427L134.848 24.0459H134.707V24.6012H134.806V24.1829L134.959 24.5438H135.062L135.214 24.1819V24.6012H135.313H135.313ZM134.421 24.6012V24.141H134.601V24.0473H134.141V24.141H134.321V24.6012H134.42H134.421Z" fill="#F79410"/>
<path d="M119.33 26.9815H107.16V4.49609H119.33L119.33 26.9815Z" fill="#FF5F00"/>
<path d="M107.932 15.7387C107.932 11.1775 110.009 7.11443 113.244 4.49599C110.796 2.51105 107.767 1.43376 104.649 1.43849C96.9684 1.43849 90.7422 7.84081 90.7422 15.7387C90.7422 23.6365 96.9684 30.0389 104.649 30.0389C107.767 30.0436 110.796 28.9663 113.244 26.9814C110.01 24.3634 107.932 20.3001 107.932 15.7387Z" fill="#EB001B"/>
<path d="M135.749 15.7397C135.749 23.6375 129.523 30.0398 121.842 30.0398C118.724 30.0445 115.695 28.9673 113.246 26.9823C116.482 24.3639 118.559 20.301 118.559 15.7397C118.559 11.1783 116.482 7.11541 113.246 4.49697C115.695 2.51209 118.724 1.43481 121.842 1.43947C129.523 1.43947 135.749 7.84178 135.749 15.7397" fill="#F79E1B"/>
</g>
<g clip-path="url(#clip1_1001_220)">
<path d="M215.17 23.5905L211.948 21.7307L211.717 22.0972C210.999 23.2252 209.992 23.7887 208.754 23.7887C206.625 23.7887 205.043 22.2101 205.043 20.1532C205.043 18.0676 206.653 16.5167 208.754 16.5167C210.02 16.5167 210.94 17.0524 211.717 18.2082L211.948 18.5746L215.17 16.7148L214.883 16.3207C213.328 14.1211 211.343 13.0793 208.725 13.0793C203.805 13.0793 201.158 16.7435 201.158 20.1809C201.158 23.6193 203.805 27.2835 208.725 27.2835C211.228 27.2835 213.588 26.0426 214.883 24.0134L215.17 23.5905ZM214.997 27.2271H219.428L220.752 24.0134H227.398L228.722 27.2271H233.181L225.241 8.42871H221.269L222.335 10.9372L214.997 27.2271ZM224.119 15.8403L225.902 20.265H222.276L224.119 15.8403ZM235.023 27.2548H238.907V18.8004H241.439V15.2491H238.906V13.5863C238.906 12.8535 239.395 12.0919 240.316 12.0919C240.805 12.0919 241.121 12.1771 241.409 12.29L241.841 12.4583L243.453 8.99219L243.022 8.85159C242.302 8.56932 241.295 8.45747 240.575 8.45747C238.821 8.45747 237.354 9.02095 236.375 10.0915C235.512 11.0214 235.022 12.3177 235.022 13.7557V15.2768H233.297V18.8281H235.022L235.023 27.2548Z" fill="#C01818"/>
<path d="M195.26 16.4045V27.2268H199.49V8.31445L191.174 14.4584L182.83 8.31552V27.198L187.06 27.2268V16.4045L191.174 19.3913L195.26 16.4045Z" fill="#C01818"/>
<path d="M250.215 13.079C245.323 13.079 242.676 16.7145 242.676 20.1518C242.676 23.5903 245.323 27.2268 250.214 27.2268C252.458 27.198 254.559 26.2117 256.199 24.3796L253.035 22.6891C252.228 23.5061 251.221 23.929 250.128 23.929C248.516 23.929 247.107 22.8862 246.733 21.5057H257.322V20.5747C257.35 15.4182 253.178 13.1067 250.214 13.079H250.215ZM246.818 18.4337C247.337 17.1374 248.429 16.4045 249.839 16.4045C251.277 16.4045 252.4 17.1374 252.975 18.4614L246.818 18.4337ZM266.124 13.1067C261.234 13.1067 258.587 16.7422 258.587 20.1806C258.587 23.619 261.234 27.2545 266.125 27.2545C268.37 27.2268 270.47 26.2404 272.11 24.4083L268.945 22.7168C268.139 23.5349 267.132 23.9567 266.038 23.9567C264.428 23.9567 263.018 22.9139 262.643 21.5334H273.232V20.6035C273.261 15.4459 269.089 13.1067 266.125 13.1067H266.124ZM262.73 18.4326C263.248 17.1374 264.341 16.3768 265.751 16.4045C267.19 16.4045 268.312 17.1374 268.888 18.4614L262.73 18.4326ZM272.743 12.458H274.382V12.768H273.721V14.4606H273.375V12.768H272.743V12.458ZM274.642 12.458H275.132L275.706 14.0089L276.253 12.458H276.742V14.4606H276.396V12.9096L275.821 14.4595H275.534L274.958 12.9096V14.4595H274.613V12.458H274.642Z" fill="#C01818"/>
<path d="M164.186 13.0228L153.742 8.28809V27.1142L164.186 31.8489V27.226L158.029 24.4363V14.8549L164.186 17.6457V13.0228Z" fill="#C01818"/>
<path d="M164.188 13.0228L174.66 8.28809V27.1142L164.188 31.8489V27.226L170.373 24.4363V14.8549L164.189 17.6457L164.188 13.0228Z" fill="#75160D"/>
</g>
<path d="M317.46 7.14002C316.288 5.79319 314.168 5.21577 311.456 5.21577H303.585C303.317 5.21563 303.057 5.31203 302.853 5.48763C302.649 5.66323 302.514 5.9065 302.472 6.17366L299.196 27.1179C299.181 27.2151 299.186 27.3144 299.213 27.4091C299.24 27.5037 299.286 27.5914 299.35 27.6662C299.413 27.7409 299.492 27.8009 299.581 27.842C299.669 27.8831 299.766 27.9044 299.863 27.9043H304.722L305.943 20.105L305.905 20.3492C305.946 20.0826 306.081 19.8396 306.284 19.664C306.487 19.4883 306.746 19.3917 307.014 19.3913H309.323C313.859 19.3913 317.411 17.5349 318.448 12.1645C318.479 12.0057 318.506 11.8511 318.529 11.7C318.837 9.71508 318.527 8.36402 317.461 7.14072" fill="#003087"/>
<path d="M376.946 17.1055C376.649 19.0707 375.159 19.0707 373.719 19.0707H372.899L373.474 15.4015C373.51 15.1799 373.699 15.0168 373.921 15.0168H374.298C375.278 15.0168 376.205 15.0168 376.682 15.5794C376.967 15.9161 377.054 16.4159 376.946 17.1055V17.1055ZM376.319 11.978H370.885C370.705 11.9781 370.531 12.0428 370.394 12.1605C370.258 12.2782 370.167 12.4413 370.138 12.6203L367.943 26.6583C367.933 26.7233 367.937 26.7898 367.955 26.8532C367.972 26.9166 368.004 26.9754 368.046 27.0254C368.089 27.0755 368.141 27.1158 368.201 27.1434C368.26 27.171 368.325 27.1854 368.39 27.1855H371.178C371.438 27.1855 371.659 26.995 371.7 26.7366L372.323 22.7554C372.381 22.3862 372.698 22.1131 373.069 22.1131H374.788C378.368 22.1131 380.433 20.3688 380.972 16.9093C381.216 15.3973 380.982 14.2086 380.28 13.3763C379.507 12.4615 378.137 11.9773 376.319 11.9773" fill="#009CDE"/>
<path d="M338.192 17.1054C337.895 19.0706 336.406 19.0706 334.965 19.0706H334.145L334.72 15.4014C334.755 15.1798 334.944 15.0167 335.167 15.0167H335.543C336.524 15.0167 337.45 15.0167 337.928 15.5793C338.214 15.916 338.3 16.4158 338.192 17.1054V17.1054ZM337.565 11.9779H332.131C331.76 11.9779 331.444 12.2504 331.385 12.6202L329.189 26.6582C329.179 26.7233 329.183 26.7898 329.201 26.8532C329.218 26.9167 329.25 26.9755 329.292 27.0256C329.335 27.0757 329.387 27.116 329.447 27.1436C329.506 27.1712 329.571 27.1854 329.636 27.1855H332.231C332.602 27.1855 332.918 26.913 332.976 26.5431L333.57 22.756C333.627 22.3861 333.944 22.1137 334.315 22.1137H336.034C339.614 22.1137 341.679 20.3687 342.219 16.9092C342.462 15.3972 342.229 14.2085 341.526 13.3762C340.753 12.4614 339.384 11.9772 337.566 11.9772L337.565 11.9779ZM350.18 22.1454C349.928 23.6433 348.749 24.6492 347.243 24.6492C346.489 24.6492 345.884 24.4043 345.496 23.9412C345.111 23.4824 344.966 22.828 345.088 22.1003C345.322 20.6151 346.521 19.5774 348.004 19.5774C348.743 19.5774 349.342 19.8245 349.738 20.2918C350.137 20.7626 350.294 21.4205 350.18 22.1454V22.1454ZM353.806 17.0419H351.204C351.096 17.0418 350.991 17.0806 350.909 17.1514C350.827 17.2222 350.772 17.3203 350.756 17.428L350.642 18.1607L350.46 17.8953C349.897 17.0715 348.641 16.7955 347.387 16.7955C344.512 16.7955 342.057 18.9908 341.579 22.0685C341.33 23.6052 341.683 25.0727 342.548 26.097C343.342 27.0379 344.474 27.4297 345.824 27.4297C348.142 27.4297 349.427 25.9304 349.427 25.9304L349.31 26.6589C349.3 26.724 349.304 26.7906 349.322 26.8541C349.34 26.9176 349.371 26.9764 349.413 27.0266C349.456 27.0767 349.509 27.1169 349.568 27.1445C349.628 27.172 349.693 27.1863 349.758 27.1862H352.101C352.472 27.1862 352.789 26.9144 352.847 26.5438L354.253 17.5699C354.264 17.5047 354.26 17.4381 354.242 17.3746C354.224 17.3111 354.192 17.2523 354.15 17.2022C354.107 17.1521 354.054 17.1118 353.995 17.0843C353.935 17.0568 353.871 17.0425 353.805 17.0426" fill="#003087"/>
<path d="M388.934 22.1454C388.682 23.6433 387.503 24.6492 385.998 24.6492C385.243 24.6492 384.639 24.4043 384.25 23.9412C383.865 23.4824 383.721 22.828 383.843 22.1003C384.077 20.6151 385.275 19.5774 386.758 19.5774C387.498 19.5774 388.096 19.8245 388.493 20.2918C388.892 20.7626 389.049 21.4205 388.934 22.1454V22.1454ZM392.56 17.0419H389.959C389.85 17.0418 389.746 17.0806 389.664 17.1514C389.581 17.2222 389.527 17.3203 389.51 17.428L389.397 18.1607L389.215 17.8953C388.651 17.0716 387.395 16.7955 386.141 16.7955C383.268 16.7955 380.812 18.9908 380.334 22.0685C380.085 23.6052 380.439 25.0727 381.303 26.097C382.097 27.0379 383.23 27.4297 384.58 27.4297C386.898 27.4297 388.183 25.9304 388.183 25.9304L388.066 26.6589C388.056 26.7239 388.06 26.7905 388.077 26.854C388.095 26.9175 388.126 26.9764 388.168 27.0265C388.211 27.0767 388.264 27.117 388.323 27.1445C388.383 27.1721 388.447 27.1863 388.513 27.1862H390.855C391.226 27.1862 391.542 26.9144 391.601 26.5438L393.008 17.5699C393.018 17.5047 393.014 17.4381 392.996 17.3746C392.978 17.3111 392.947 17.2523 392.904 17.2022C392.862 17.1521 392.809 17.1118 392.749 17.0843C392.69 17.0568 392.625 17.0425 392.56 17.0426" fill="#009CDE"/>
<path d="M367.663 17.0431H365.047C364.797 17.0431 364.563 17.168 364.423 17.3769L360.815 22.7304L359.286 17.5859C359.239 17.429 359.144 17.2914 359.013 17.1935C358.883 17.0956 358.725 17.0426 358.562 17.0423H355.992C355.92 17.0424 355.849 17.0597 355.785 17.093C355.721 17.1262 355.666 17.1744 355.624 17.2334C355.582 17.2925 355.554 17.3608 355.544 17.4327C355.533 17.5045 355.54 17.5779 355.563 17.6466L358.443 26.1638L355.734 30.0144C355.686 30.0827 355.658 30.163 355.652 30.2465C355.647 30.3299 355.664 30.4133 355.702 30.4876C355.74 30.5619 355.798 30.6242 355.869 30.6677C355.94 30.7112 356.021 30.7343 356.104 30.7344H358.717C358.964 30.7344 359.196 30.6123 359.337 30.4076L368.034 17.7595C368.081 17.6912 368.109 17.6111 368.114 17.5279C368.119 17.4448 368.102 17.3618 368.064 17.288C368.025 17.2141 367.968 17.1523 367.897 17.1091C367.826 17.0659 367.745 17.0431 367.663 17.0431" fill="#003087"/>
<path d="M395.627 12.3644L393.396 26.6592C393.386 26.7244 393.39 26.7909 393.408 26.8544C393.426 26.9178 393.457 26.9766 393.499 27.0267C393.542 27.0768 393.595 27.117 393.654 27.1446C393.714 27.1722 393.778 27.1865 393.844 27.1865H396.086C396.457 27.1865 396.774 26.9141 396.832 26.5442L399.031 12.5055C399.042 12.4404 399.038 12.3738 399.02 12.3103C399.002 12.2468 398.971 12.188 398.928 12.1378C398.886 12.0877 398.833 12.0475 398.773 12.0199C398.714 11.9924 398.649 11.9782 398.584 11.9783H396.074C395.966 11.978 395.862 12.0167 395.78 12.0874C395.697 12.1581 395.643 12.2561 395.627 12.3637" fill="#009CDE"/>
<path d="M317.46 7.14002C316.288 5.79319 314.168 5.21577 311.456 5.21577H303.585C303.317 5.21563 303.057 5.31203 302.853 5.48763C302.649 5.66323 302.514 5.9065 302.472 6.17366L299.196 27.1179C299.181 27.2151 299.186 27.3144 299.213 27.4091C299.24 27.5037 299.286 27.5914 299.35 27.6662C299.413 27.7409 299.492 27.8009 299.581 27.842C299.669 27.8831 299.766 27.9044 299.863 27.9043H304.722L305.943 20.105L305.905 20.3492C305.946 20.0826 306.081 19.8396 306.284 19.664C306.487 19.4883 306.746 19.3917 307.014 19.3913H309.323C313.859 19.3913 317.411 17.5349 318.448 12.1645C318.479 12.0057 318.506 11.8511 318.529 11.7C318.837 9.71508 318.527 8.36402 317.461 7.14072" fill="#003087"/>
<path d="M307.254 11.7259C307.291 11.4924 307.409 11.2799 307.588 11.1263C307.766 10.9727 307.993 10.8882 308.227 10.888H314.398C315.128 10.888 315.81 10.936 316.433 11.0362C316.773 11.0914 317.11 11.1673 317.442 11.2635C317.818 11.3701 318.182 11.5164 318.528 11.6998C318.838 9.7141 318.527 8.36375 317.461 7.13975C316.288 5.79362 314.169 5.21621 311.457 5.21621H303.585C303.317 5.2164 303.058 5.31296 302.854 5.48853C302.65 5.6641 302.515 5.90718 302.473 6.1741L299.196 27.1163C299.181 27.2134 299.186 27.3128 299.213 27.4074C299.239 27.5021 299.286 27.5899 299.349 27.6647C299.413 27.7395 299.491 27.7996 299.58 27.8408C299.669 27.882 299.765 27.9033 299.863 27.9033H304.722L305.943 20.1033L307.254 11.7259Z" fill="#003087"/>
<path d="M318.529 11.6988C318.505 11.8541 318.478 12.009 318.448 12.1633C317.411 17.5329 313.859 19.3901 309.323 19.3901H307.013C306.745 19.3903 306.487 19.487 306.283 19.6626C306.08 19.8383 305.946 20.0814 305.905 20.348L304.722 27.9024L304.386 30.0454C304.373 30.1305 304.378 30.2175 304.401 30.3004C304.424 30.3833 304.465 30.4602 304.521 30.5256C304.576 30.5911 304.645 30.6437 304.723 30.6797C304.8 30.7158 304.885 30.7344 304.97 30.7344H309.067C309.551 30.7344 309.963 30.3786 310.04 29.8965L310.08 29.6861L310.852 24.7562L310.901 24.4838C310.937 24.2502 311.056 24.0374 311.234 23.8838C311.413 23.7302 311.64 23.6458 311.874 23.6459H312.487C316.455 23.6459 319.562 22.0224 320.47 17.324C320.848 15.3616 320.652 13.7219 319.65 12.5706C319.332 12.2136 318.952 11.9182 318.529 11.6988" fill="#009CDE"/>
<path d="M317.442 11.2629C317.283 11.2156 317.12 11.1733 316.952 11.1359C316.784 11.0985 316.61 11.0653 316.432 11.037C315.809 10.9347 315.128 10.8867 314.396 10.8867H308.227C307.992 10.8864 307.765 10.9708 307.586 11.1246C307.408 11.2784 307.29 11.4915 307.254 11.7253L305.942 20.1041L305.904 20.3477C305.945 20.081 306.079 19.8379 306.283 19.6623C306.486 19.4866 306.745 19.39 307.013 19.3898H309.322C313.858 19.3898 317.41 17.5333 318.448 12.1629C318.478 12.0041 318.504 11.8502 318.528 11.6985C318.254 11.554 317.969 11.4326 317.675 11.3356C317.599 11.3102 317.521 11.2862 317.442 11.2622" fill="#012169"/>
<defs>
<clipPath id="clip0_1001_220">
<rect width="45" height="35.9951" fill="white" transform="translate(90.7422 1.43945)"/>
</clipPath>
<clipPath id="clip1_1001_220">
<rect width="123" height="24" fill="white" transform="translate(153.742 8.06836)"/>
</clipPath>
</defs>
</svg>
