<svg width="299" height="511" viewBox="0 0 299 511" fill="none" xmlns="http://www.w3.org/2000/svg">
<mask id="path-1-inside-1_1001_166" fill="white">
<path d="M123.91 0.96314C199.362 59.2908 254.357 140.058 280.977 231.636C307.597 323.214 304.468 420.877 272.04 510.563L82.7239 442.113C100.661 392.504 102.392 338.483 87.6673 287.827C72.9429 237.172 42.5229 192.496 0.787478 160.233L123.91 0.96314Z"/>
</mask>
<path d="M123.91 0.96314C199.362 59.2908 254.357 140.058 280.977 231.636C307.597 323.214 304.468 420.877 272.04 510.563L82.7239 442.113C100.661 392.504 102.392 338.483 87.6673 287.827C72.9429 237.172 42.5229 192.496 0.787478 160.233L123.91 0.96314Z" fill="#424242" stroke="#9D9D9D" stroke-width="3.21786" mask="url(#path-1-inside-1_1001_166)"/>
</svg>
