<svg width="77" height="15" viewBox="0 0 77 15" fill="none" xmlns="http://www.w3.org/2000/svg">
<path d="M14.7778 6.57371C14.9481 6.44686 15.0744 6.26989 15.139 6.06762C15.2037 5.86535 15.2034 5.64793 15.1382 5.44583C15.073 5.24374 14.9462 5.06711 14.7756 4.94071C14.605 4.81432 14.3991 4.74449 14.1868 4.74102L10.0632 4.58524C10.0429 4.58384 10.0235 4.57661 10.0072 4.56442C9.99098 4.55222 9.97859 4.53559 9.97157 4.51652L8.54665 0.667858C8.47506 0.472052 8.34503 0.302976 8.17416 0.18352C8.00329 0.0640648 7.79985 0 7.59136 0C7.38288 0 7.17943 0.0640648 7.00856 0.18352C6.8377 0.302976 6.70766 0.472052 6.63607 0.667858L5.21573 4.53026C5.20871 4.54933 5.19633 4.56597 5.18007 4.57816C5.16381 4.59035 5.14437 4.59759 5.1241 4.59899L1.00054 4.75477C0.78822 4.75823 0.582314 4.82806 0.411688 4.95446C0.241061 5.08086 0.114272 5.25749 0.0490965 5.45958C-0.0160787 5.66167 -0.0163711 5.8791 0.0482603 6.08137C0.112892 6.28363 0.239206 6.4606 0.409491 6.58746L3.6442 9.13032C3.66039 9.14306 3.67249 9.16027 3.679 9.17981C3.68551 9.19936 3.68616 9.22038 3.68085 9.24028L2.56749 13.1852C2.50979 13.386 2.51538 13.5998 2.5835 13.7974C2.65161 13.995 2.77894 14.1668 2.94816 14.2895C3.11738 14.4121 3.32029 14.4797 3.52927 14.483C3.73824 14.4862 3.94315 14.425 4.11611 14.3077L7.53409 12.0168C7.55093 12.0052 7.5709 11.999 7.59136 11.999C7.61182 11.999 7.6318 12.0052 7.64863 12.0168L11.0666 14.3077C11.2372 14.429 11.4414 14.4942 11.6508 14.4942C11.8602 14.4942 12.0643 14.429 12.235 14.3077C12.4042 14.1862 12.5317 14.0152 12.5998 13.8183C12.6679 13.6214 12.6733 13.4082 12.6152 13.2081L11.4927 9.24945C11.4868 9.22958 11.4871 9.20835 11.4936 9.18867C11.5002 9.16899 11.5127 9.15182 11.5294 9.13949L14.7778 6.57371Z" fill="white"/>
<path d="M30.2309 6.57371C30.4012 6.44686 30.5275 6.26989 30.5922 6.06762C30.6568 5.86535 30.6565 5.64793 30.5913 5.44583C30.5262 5.24374 30.3994 5.06711 30.2287 4.94071C30.0581 4.81432 29.8522 4.74449 29.6399 4.74102L25.5163 4.58524C25.4961 4.58384 25.4766 4.57661 25.4604 4.56442C25.4441 4.55222 25.4317 4.53559 25.4247 4.51652L23.9998 0.667858C23.9282 0.472052 23.7982 0.302976 23.6273 0.18352C23.4564 0.0640648 23.253 0 23.0445 0C22.836 0 22.6326 0.0640648 22.4617 0.18352C22.2908 0.302976 22.1608 0.472052 22.0892 0.667858L20.6689 4.53026C20.6618 4.54933 20.6495 4.56597 20.6332 4.57816C20.6169 4.59035 20.5975 4.59759 20.5772 4.59899L16.4537 4.75477C16.2413 4.75823 16.0354 4.82806 15.8648 4.95446C15.6942 5.08086 15.5674 5.25749 15.5022 5.45958C15.437 5.66167 15.4368 5.8791 15.5014 6.08137C15.566 6.28363 15.6923 6.4606 15.8626 6.58746L19.0973 9.13032C19.1135 9.14306 19.1256 9.16027 19.1321 9.17981C19.1386 9.19936 19.1393 9.22038 19.134 9.24028L18.0206 13.1852C17.9629 13.386 17.9685 13.5998 18.0366 13.7974C18.1047 13.995 18.2321 14.1668 18.4013 14.2895C18.5705 14.4121 18.7734 14.4797 18.9824 14.483C19.1914 14.4862 19.3963 14.425 19.5692 14.3077L22.9872 12.0168C23.0041 12.0052 23.024 11.999 23.0445 11.999C23.0649 11.999 23.0849 12.0052 23.1018 12.0168L26.5197 14.3077C26.6904 14.429 26.8945 14.4942 27.1039 14.4942C27.3133 14.4942 27.5175 14.429 27.6881 14.3077C27.8573 14.1862 27.9848 14.0152 28.0529 13.8183C28.121 13.6214 28.1264 13.4082 28.0684 13.2081L26.9458 9.24945C26.9399 9.22958 26.9402 9.20835 26.9468 9.18867C26.9533 9.16899 26.9658 9.15182 26.9825 9.13949L30.2309 6.57371Z" fill="white"/>
<path d="M45.6841 6.57371C45.8543 6.44686 45.9807 6.26989 46.0453 6.06762C46.1099 5.86535 46.1096 5.64793 46.0445 5.44583C45.9793 5.24374 45.8525 5.06711 45.6819 4.94071C45.5112 4.81432 45.3053 4.74449 45.093 4.74102L40.9695 4.58524C40.9492 4.58384 40.9297 4.57661 40.9135 4.56442C40.8972 4.55222 40.8848 4.53559 40.8778 4.51652L39.4529 0.667858C39.3813 0.472052 39.2513 0.302976 39.0804 0.18352C38.9095 0.0640648 38.7061 0 38.4976 0C38.2891 0 38.0857 0.0640648 37.9148 0.18352C37.7439 0.302976 37.6139 0.472052 37.5423 0.667858L36.122 4.53026C36.115 4.54933 36.1026 4.56597 36.0863 4.57816C36.0701 4.59035 36.0506 4.59759 36.0303 4.59899L31.9068 4.75477C31.6945 4.75823 31.4886 4.82806 31.3179 4.95446C31.1473 5.08086 31.0205 5.25749 30.9553 5.45958C30.8902 5.66167 30.8899 5.8791 30.9545 6.08137C31.0191 6.28363 31.1455 6.4606 31.3157 6.58746L34.5504 9.13032C34.5666 9.14306 34.5787 9.16027 34.5852 9.17981C34.5918 9.19936 34.5924 9.22038 34.5871 9.24028L33.4737 13.1852C33.416 13.386 33.4216 13.5998 33.4897 13.7974C33.5579 13.995 33.6852 14.1668 33.8544 14.2895C34.0236 14.4121 34.2265 14.4797 34.4355 14.483C34.6445 14.4862 34.8494 14.425 35.0224 14.3077L38.4403 12.0168C38.4572 12.0052 38.4772 11.999 38.4976 11.999C38.5181 11.999 38.538 12.0052 38.5549 12.0168L41.9729 14.3077C42.1435 14.429 42.3477 14.4942 42.557 14.4942C42.7664 14.4942 42.9706 14.429 43.1412 14.3077C43.3105 14.1862 43.4379 14.0152 43.506 13.8183C43.5741 13.6214 43.5795 13.4082 43.5215 13.2081L42.399 9.24945C42.393 9.22958 42.3933 9.20835 42.3999 9.18867C42.4065 9.16899 42.4189 9.15182 42.4356 9.13949L45.6841 6.57371Z" fill="white"/>
<path d="M61.1372 6.57371C61.3075 6.44686 61.4338 6.26989 61.4984 6.06762C61.563 5.86535 61.5628 5.64793 61.4976 5.44583C61.4324 5.24374 61.3056 5.06711 61.135 4.94071C60.9644 4.81432 60.7585 4.74449 60.5461 4.74102L56.4226 4.58524C56.4023 4.58384 56.3829 4.57661 56.3666 4.56442C56.3504 4.55222 56.338 4.53559 56.3309 4.51652L54.906 0.667858C54.8344 0.472052 54.7044 0.302976 54.5335 0.18352C54.3627 0.0640648 54.1592 0 53.9507 0C53.7423 0 53.5388 0.0640648 53.3679 0.18352C53.1971 0.302976 53.067 0.472052 52.9954 0.667858L51.5751 4.53026C51.5681 4.54933 51.5557 4.56597 51.5394 4.57816C51.5232 4.59035 51.5037 4.59759 51.4835 4.59899L47.3599 4.75477C47.1476 4.75823 46.9417 4.82806 46.7711 4.95446C46.6004 5.08086 46.4736 5.25749 46.4085 5.45958C46.3433 5.66167 46.343 5.8791 46.4076 6.08137C46.4723 6.28363 46.5986 6.4606 46.7689 6.58746L50.0036 9.13032C50.0198 9.14306 50.0319 9.16027 50.0384 9.17981C50.0449 9.19936 50.0455 9.22038 50.0402 9.24028L48.9269 13.1852C48.8692 13.386 48.8748 13.5998 48.9429 13.7974C49.011 13.995 49.1383 14.1668 49.3075 14.2895C49.4768 14.4121 49.6797 14.4797 49.8886 14.483C50.0976 14.4862 50.3025 14.425 50.4755 14.3077L53.8935 12.0168C53.9103 12.0052 53.9303 11.999 53.9507 11.999C53.9712 11.999 53.9912 12.0052 54.008 12.0168L57.426 14.3077C57.5966 14.429 57.8008 14.4942 58.0102 14.4942C58.2195 14.4942 58.4237 14.429 58.5943 14.3077C58.7636 14.1862 58.891 14.0152 58.9591 13.8183C59.0272 13.6214 59.0326 13.4082 58.9746 13.2081L57.8521 9.24945C57.8461 9.22958 57.8465 9.20835 57.853 9.18867C57.8596 9.16899 57.8721 9.15182 57.8887 9.13949L61.1372 6.57371Z" fill="white"/>
<path d="M76.5903 6.57371C76.7606 6.44686 76.8869 6.26989 76.9515 6.06762C77.0162 5.86535 77.0159 5.64793 76.9507 5.44583C76.8855 5.24374 76.7587 5.06711 76.5881 4.94071C76.4175 4.81432 76.2116 4.74449 75.9993 4.74102L71.8757 4.58524C71.8554 4.58384 71.836 4.57661 71.8197 4.56442C71.8035 4.55222 71.7911 4.53559 71.7841 4.51652L70.3592 0.667858C70.2876 0.472052 70.1575 0.302976 69.9867 0.18352C69.8158 0.0640648 69.6123 0 69.4039 0C69.1954 0 68.9919 0.0640648 68.8211 0.18352C68.6502 0.302976 68.5202 0.472052 68.4486 0.667858L67.0282 4.53026C67.0212 4.54933 67.0088 4.56597 66.9926 4.57816C66.9763 4.59035 66.9569 4.59759 66.9366 4.59899L62.813 4.75477C62.6007 4.75823 62.3948 4.82806 62.2242 4.95446C62.0536 5.08086 61.9268 5.25749 61.8616 5.45958C61.7964 5.66167 61.7961 5.8791 61.8608 6.08137C61.9254 6.28363 62.0517 6.4606 62.222 6.58746L65.4567 9.13032C65.4729 9.14306 65.485 9.16027 65.4915 9.17981C65.498 9.19936 65.4987 9.22038 65.4934 9.24028L64.38 13.1852C64.3223 13.386 64.3279 13.5998 64.396 13.7974C64.4641 13.995 64.5914 14.1668 64.7607 14.2895C64.9299 14.4121 65.1328 14.4797 65.3418 14.483C65.5507 14.4862 65.7557 14.425 65.9286 14.3077L69.3466 12.0168C69.3634 12.0052 69.3834 11.999 69.4039 11.999C69.4243 11.999 69.4443 12.0052 69.4611 12.0168L72.8791 14.3077C73.0497 14.429 73.2539 14.4942 73.4633 14.4942C73.6727 14.4942 73.8768 14.429 74.0475 14.3077C74.2167 14.1862 74.3442 14.0152 74.4123 13.8183C74.4804 13.6214 74.4858 13.4082 74.4277 13.2081L73.3052 9.24945C73.2993 9.22958 73.2996 9.20835 73.3061 9.18867C73.3127 9.16899 73.3252 9.15182 73.3419 9.13949L76.5903 6.57371Z" fill="white"/>
</svg>
