<svg width="1048" height="594" viewBox="0 0 1048 594" fill="none" xmlns="http://www.w3.org/2000/svg">
<path fill-rule="evenodd" clip-rule="evenodd" d="M9.20166 594.659L6.86434 594.99C6.72485 593.975 6.58836 592.96 6.45487 591.945L5.46341 592.076L4.47194 592.206C4.60627 593.228 4.74363 594.249 4.88402 595.27C4.92943 595.6 4.97515 595.93 5.02119 596.26C5.06405 596.568 5.10717 596.875 5.15058 597.182L5.15098 597.185L5.16025 597.251L6.1504 597.111L7.14056 596.971L9.20166 596.679V594.659ZM1039.35 595.739L1040.81 595.942L1041.8 596.08L1042.79 596.219C1042.84 595.888 1042.88 595.558 1042.93 595.228C1042.98 594.898 1043.02 594.567 1043.06 594.237C1043.2 593.216 1043.34 592.194 1043.47 591.172L1042.48 591.044L1041.49 590.916C1041.36 591.931 1041.22 592.946 1041.08 593.961L1039.43 593.73L1039.35 595.739ZM1043.69 580.954L1044.68 581.063C1045.05 577.688 1045.39 574.31 1045.69 570.931L1044.7 570.842L1043.7 570.752C1043.4 574.118 1043.06 577.482 1042.69 580.845L1043.69 580.954ZM1045.51 560.712L1046.51 560.783C1046.75 557.396 1046.95 554.008 1047.13 550.619L1046.13 550.568L1045.13 550.517C1044.96 553.893 1044.75 557.268 1044.51 560.642L1045.51 560.712ZM1046.55 540.415L1047.55 540.447C1047.65 537.053 1047.73 533.66 1047.77 530.267L1046.77 530.255L1045.77 530.243C1045.73 533.623 1045.65 537.003 1045.55 540.383L1046.55 540.415ZM1046.79 520.093L1047.79 520.085C1047.77 516.691 1047.71 513.297 1047.62 509.905L1046.62 509.932L1045.62 509.958C1045.71 513.338 1045.77 516.718 1045.79 520.1L1046.79 520.093ZM1046.25 499.776L1047.25 499.73C1047.09 496.339 1046.9 492.951 1046.68 489.564L1045.68 489.63L1044.69 489.695C1044.91 493.069 1045.1 496.445 1045.25 499.822L1046.25 499.776ZM1044.92 479.496L1045.91 479.411C1045.63 476.029 1045.31 472.651 1044.95 469.275L1043.96 469.379L1042.96 469.484C1043.32 472.846 1043.63 476.212 1043.92 479.581L1044.92 479.496ZM1042.8 459.283L1043.79 459.16C1043.37 455.792 1042.92 452.428 1042.44 449.068L1041.45 449.211L1040.46 449.354C1040.94 452.701 1041.39 456.052 1041.81 459.407L1042.8 459.283ZM1039.9 439.168L1040.88 439.006C1040.33 435.657 1039.75 432.314 1039.14 428.975L1038.15 429.156L1037.17 429.337C1037.78 432.663 1038.36 435.994 1038.91 439.33L1039.9 439.168ZM1036.21 419.181L1037.19 418.98C1036.51 415.656 1035.8 412.337 1035.06 409.025L1034.08 409.244L1033.11 409.463C1033.85 412.763 1034.56 416.069 1035.23 419.381L1036.21 419.181ZM1031.76 399.352L1032.73 399.113C1031.92 395.818 1031.08 392.53 1030.21 389.248L1029.24 389.505L1028.27 389.763C1029.14 393.031 1029.98 396.307 1030.79 399.59L1031.76 399.352ZM1026.53 379.711L1027.49 379.435C1027.03 377.804 1026.55 376.175 1026.07 374.548C1025.58 372.92 1025.09 371.296 1024.59 369.675L1023.64 369.969L1022.68 370.263C1023.18 371.879 1023.67 373.497 1024.15 375.118C1024.63 376.739 1025.11 378.362 1025.57 379.986L1026.53 379.711ZM1020.55 360.287L1021.5 359.974C1020.44 356.749 1019.34 353.535 1018.22 350.334L1017.28 350.666L1016.33 350.997C1017.45 354.186 1018.54 357.387 1019.6 360.599L1020.55 360.287ZM1013.82 341.111L1014.75 340.761C1013.57 337.58 1012.35 334.412 1011.1 331.257L1010.17 331.624L1009.24 331.992C1010.49 335.135 1011.7 338.291 1012.88 341.46L1013.82 341.111ZM1006.34 322.211L1007.27 321.825C1005.96 318.693 1004.62 315.574 1003.25 312.47L1002.33 312.873L1001.42 313.277C1002.78 316.37 1004.12 319.476 1005.42 322.597L1006.34 322.211ZM998.142 303.616L999.049 303.194C997.619 300.116 996.159 297.052 994.67 294.002L993.771 294.441L992.872 294.88C994.356 297.918 995.81 300.97 997.235 304.037L998.142 303.616ZM989.223 285.353L990.113 284.897C988.565 281.877 986.987 278.872 985.38 275.882L984.499 276.355L983.618 276.829C985.219 279.807 986.791 282.801 988.333 285.809L989.223 285.353ZM979.602 267.451L980.473 266.961C978.809 264.003 977.115 261.062 975.394 258.137L974.532 258.644L973.67 259.151C975.385 262.065 977.072 264.995 978.73 267.942L979.602 267.451ZM969.292 249.937L970.144 249.413C968.366 246.522 966.559 243.649 964.725 240.793L963.883 241.333L963.042 241.873C964.869 244.719 966.669 247.581 968.44 250.461L969.292 249.937ZM958.309 232.836L959.14 232.279C957.251 229.46 955.334 226.659 953.39 223.876L952.57 224.449L951.751 225.021C953.688 227.794 955.597 230.584 957.478 233.393L958.309 232.836ZM946.67 216.175L947.479 215.587C945.482 212.843 943.458 210.119 941.407 207.413L940.61 208.017L939.813 208.621C941.856 211.317 943.873 214.031 945.862 216.764L946.67 216.175ZM934.393 199.979L935.178 199.359C933.076 196.696 930.948 194.052 928.793 191.428L928.02 192.063L927.247 192.697C929.394 195.312 931.514 197.945 933.608 200.598L934.393 199.979ZM921.495 184.272L922.255 183.623C921.153 182.333 920.045 181.047 918.93 179.767C917.815 178.487 916.693 177.213 915.567 175.945L914.819 176.609L914.071 177.273C915.194 178.537 916.311 179.806 917.422 181.081C918.532 182.356 919.637 183.636 920.735 184.922L921.495 184.272ZM907.996 169.078L908.731 168.399C906.427 165.905 904.099 163.434 901.749 160.988L901.028 161.68L900.307 162.373C902.648 164.811 904.966 167.272 907.262 169.756L907.996 169.078ZM893.918 154.42L894.625 153.713C892.226 151.311 889.805 148.933 887.361 146.579L886.667 147.299L885.974 148.019C888.408 150.364 890.82 152.733 893.21 155.127L893.918 154.42ZM879.28 140.321L879.96 139.587C877.469 137.28 874.957 134.997 872.424 132.74L871.758 133.487L871.093 134.233C873.617 136.482 876.12 138.756 878.601 141.054L879.28 140.321ZM864.106 126.8L864.756 126.041C862.178 123.832 859.58 121.649 856.96 119.492L856.324 120.264L855.689 121.036C858.298 123.185 860.887 125.36 863.455 127.56L864.106 126.8ZM848.417 113.88L849.038 113.096C846.377 110.99 843.695 108.909 840.993 106.855L840.388 107.651L839.783 108.447C842.474 110.493 845.146 112.566 847.797 114.664L848.417 113.88ZM832.239 101.579L832.829 100.772C830.088 98.7705 827.327 96.7959 824.547 94.8482L823.973 95.6671L823.4 96.4861C826.169 98.4264 828.919 100.393 831.649 102.387L832.239 101.579ZM815.595 89.9166L816.152 89.0866C813.336 87.1936 810.501 85.3277 807.647 83.4893L807.106 84.3299L806.564 85.1705C809.407 87.002 812.231 88.8607 815.037 90.7465L815.595 89.9166ZM798.51 78.9094L799.035 78.0583C796.147 76.2763 793.242 74.522 790.318 72.7956L789.81 73.6567L789.301 74.5177C792.213 76.2375 795.108 77.9852 797.985 79.7604L798.51 78.9094ZM781.01 68.5744L781.502 67.7036C778.547 66.0353 775.576 64.3952 772.587 62.7836L772.113 63.6638L771.638 64.5439C774.615 66.1494 777.575 67.7832 780.518 69.4452L781.01 68.5744ZM763.122 58.9273L763.579 58.0381C760.563 56.486 757.53 54.9626 754.481 53.4682L754.04 54.3662L753.6 55.2641C756.638 56.7528 759.659 58.2704 762.664 59.8165L763.122 58.9273ZM744.872 49.9826L745.295 49.0762C743.757 48.3592 742.215 47.6495 740.67 46.9471C739.125 46.2448 737.576 45.5501 736.025 44.8631L735.62 45.7775L735.215 46.6918C736.76 47.3762 738.303 48.0682 739.842 48.7679C741.382 49.4676 742.918 50.1746 744.45 50.8889L744.872 49.9826ZM726.288 41.7534L726.675 40.8313C723.544 39.5171 720.402 38.234 717.249 36.9819L716.88 37.9113L716.511 38.8407C719.652 40.088 722.782 41.3663 725.901 42.6755L726.288 41.7534ZM707.399 34.253L707.75 33.3166C704.571 32.1251 701.381 30.965 698.181 29.8364L697.849 30.7794L697.516 31.7225C700.704 32.8468 703.881 34.0025 707.048 35.1894L707.399 34.253ZM688.233 27.4923L688.547 26.5429C685.324 25.4761 682.092 24.4408 678.85 23.4372L678.555 24.3924L678.259 25.3477C681.488 26.3475 684.708 27.3788 687.919 28.4416L688.233 27.4923ZM668.818 21.4814L669.095 20.5206C665.834 19.5799 662.564 18.671 659.285 17.7941L659.027 18.7601L658.769 19.7261C662.034 20.5997 665.292 21.5051 668.541 22.4423L668.818 21.4814ZM649.185 16.2296L649.424 15.2587C646.129 14.4455 642.826 13.6644 639.516 12.9155L639.295 13.8908L639.075 14.8662C642.372 15.6122 645.663 16.3904 648.945 17.2005L649.185 16.2296ZM629.362 11.7447L629.564 10.7652C626.24 10.0808 622.909 9.42859 619.572 8.80879L619.389 9.79197L619.207 10.7752C622.531 11.3926 625.849 12.0423 629.16 12.7241L629.362 11.7447ZM609.38 8.03345L609.544 7.0469C606.196 6.49217 602.842 5.9699 599.483 5.4802L599.339 6.46974L599.195 7.45928C602.541 7.94711 605.882 8.46738 609.217 9.01999L609.38 8.03345ZM589.269 5.10149L589.394 4.10934C586.027 3.68516 582.656 3.2936 579.28 2.93476L579.174 3.92916L579.069 4.92355C582.432 5.28102 585.79 5.67109 589.144 6.09365L589.269 5.10149ZM569.059 2.95328L569.146 1.95702C565.765 1.66402 562.381 1.40377 558.994 1.17637L558.927 2.17412L558.86 3.17188C562.234 3.39841 565.606 3.65766 568.973 3.94954L569.059 2.95328ZM548.781 1.59207L548.829 0.593198C545.44 0.4318 542.048 0.303255 538.654 0.207663L538.626 1.20727L538.598 2.20687C541.979 2.3021 545.358 2.43015 548.734 2.59093L548.781 1.59207ZM528.466 1.01989L528.474 0.0199319C526.778 0.00513223 525.08 -0.0014295 523.383 0.000259262C521.685 0.00194801 519.988 0.0118862 518.291 0.0300612L518.302 1.03L518.313 2.02995C520.003 2.01184 521.694 2.00194 523.385 2.00026C525.076 1.99858 526.767 2.00511 528.457 2.01986L528.466 1.01989ZM508.142 1.23759L508.112 0.238045C504.718 0.34039 501.327 0.475684 497.938 0.643824L497.988 1.6426L498.037 2.64137C501.413 2.47387 504.791 2.33909 508.172 2.23714L508.142 1.23759ZM487.843 2.24484L487.774 1.24722C484.387 1.48135 481.004 1.74834 477.624 2.04806L477.712 3.04415L477.801 4.04024C481.167 3.74166 484.538 3.4757 487.912 3.24246L487.843 2.24484ZM467.599 4.04015L467.492 3.04597C464.116 3.41152 460.746 3.80979 457.38 4.24067L457.507 5.23258L457.634 6.22448C460.987 5.79525 464.345 5.3985 467.707 5.03434L467.599 4.04015ZM447.44 6.62085L447.294 5.6316C443.936 6.12798 440.583 6.65692 437.236 7.21831L437.402 8.20454L437.567 9.19076C440.901 8.63151 444.241 8.10459 447.586 7.6101L447.44 6.62085ZM427.396 9.98298L427.212 9.00015C423.876 9.62659 420.546 10.2854 417.223 10.9765L417.427 11.9555L417.631 12.9346C420.941 12.2461 424.258 11.5898 427.581 10.9658L427.396 9.98298ZM407.498 14.1214L407.276 13.1465C403.967 13.902 400.665 14.6897 397.372 15.5095L397.613 16.4799L397.855 17.4503C401.136 16.6336 404.425 15.849 407.721 15.0963L407.498 14.1214ZM387.776 19.0299L387.516 18.0644C384.239 18.9479 380.971 19.8633 377.711 20.8105L377.99 21.7707L378.269 22.731C381.517 21.7874 384.772 20.8755 388.036 19.9955L387.776 19.0299ZM368.26 24.7011L367.962 23.7465C364.723 24.7565 361.492 25.7982 358.272 26.8715L358.588 27.8202L358.904 28.7689C362.112 27.6997 365.33 26.662 368.557 25.6558L368.26 24.7011ZM348.979 31.1265L348.644 30.1841C345.446 31.3191 342.259 32.4856 339.082 33.6833L339.435 34.619L339.788 35.5547C342.952 34.3616 346.128 33.1996 349.313 32.0688L348.979 31.1265ZM329.961 38.2962L329.591 37.3676C326.44 38.6259 323.3 39.9153 320.172 41.2357L320.561 42.157L320.95 43.0783C324.066 41.7629 327.194 40.4784 330.332 39.2249L329.961 38.2962ZM311.237 46.1996L310.831 45.2861C309.281 45.9761 307.734 46.6739 306.189 47.3793C304.645 48.0848 303.105 48.7976 301.569 49.5176L301.993 50.4231L302.418 51.3286C303.948 50.6113 305.482 49.9012 307.021 49.1985C308.559 48.4957 310.1 47.8006 311.644 47.1132L311.237 46.1996ZM292.834 54.825L292.392 53.9279C289.346 55.4284 286.316 56.9578 283.302 58.5158L283.761 59.4041L284.221 60.2924C287.223 58.7403 290.241 57.2168 293.276 55.722L292.834 54.825ZM274.78 64.1585L274.304 63.2793C271.319 64.8969 268.35 66.5429 265.399 68.217L265.892 69.0868L266.386 69.9566C269.326 68.2888 272.283 66.6491 275.257 65.0377L274.78 64.1585ZM257.103 74.1866L256.593 73.3266C253.673 75.0588 250.771 76.8189 247.887 78.6067L248.413 79.4566L248.94 80.3066C251.813 78.5256 254.704 76.7722 257.613 75.0467L257.103 74.1866ZM239.828 84.8942L239.285 84.0547C236.435 85.8988 233.604 87.7703 230.791 89.669L231.35 90.4978L231.91 91.3266C234.712 89.4353 237.533 87.5709 240.372 85.7338L239.828 84.8942ZM222.983 96.265L222.408 95.4472C219.632 97.4004 216.875 99.3806 214.138 101.387L214.729 102.194L215.321 103C218.047 101.001 220.793 99.0286 223.559 97.0828L222.983 96.265ZM206.592 108.282L205.986 107.487C203.288 109.546 200.611 111.632 197.953 113.744L198.575 114.527L199.198 115.31C201.845 113.206 204.512 111.128 207.199 109.077L206.592 108.282ZM182.261 126.72C184.834 124.506 187.429 122.318 190.044 120.156L190.681 120.926L191.318 121.697C188.713 123.851 186.129 126.031 183.565 128.236L182.913 127.478L182.261 126.72ZM175.273 134.179L174.607 133.434C172.078 135.697 169.57 137.984 167.084 140.296L167.765 141.028L168.446 141.761C170.923 139.457 173.421 137.179 175.94 134.925L175.273 134.179ZM160.392 148.021L159.697 147.303C157.258 149.661 154.841 152.045 152.447 154.452L153.156 155.157L153.865 155.862C156.25 153.464 158.658 151.09 161.087 148.74L160.392 148.021ZM146.06 162.431L145.338 161.74C142.992 164.192 140.67 166.667 138.371 169.166L139.107 169.843L139.843 170.52C142.133 168.031 144.446 165.565 146.783 163.123L146.06 162.431ZM132.299 177.387L131.55 176.725C130.426 177.995 129.307 179.272 128.194 180.554C127.082 181.836 125.976 183.124 124.876 184.416L125.638 185.064L126.4 185.712C127.495 184.424 128.597 183.142 129.705 181.865C130.813 180.587 131.928 179.316 133.048 178.05L132.299 177.387ZM119.128 192.867L118.354 192.234C116.205 194.863 114.082 197.511 111.985 200.178L112.772 200.796L113.558 201.414C115.646 198.757 117.761 196.119 119.903 193.501L119.128 192.867ZM106.57 208.847L105.772 208.244C103.727 210.954 101.708 213.683 99.7166 216.43L100.526 217.017L101.336 217.604C103.32 214.867 105.331 212.149 107.368 209.449L106.57 208.847ZM94.6425 225.302L93.8216 224.731C91.883 227.518 89.9719 230.323 88.0887 233.146L88.9206 233.701L89.7524 234.256C91.6285 231.444 93.5322 228.65 95.4634 225.873L94.6425 225.302ZM77.1192 250.301C78.8914 247.407 80.692 244.53 82.5206 241.67L83.3631 242.209L84.2056 242.748C82.3839 245.597 80.5902 248.463 78.8248 251.346L77.972 250.823L77.1192 250.301ZM72.7493 259.541L71.8865 259.035C70.1705 261.964 68.4831 264.909 66.8246 267.87L67.697 268.358L68.5695 268.847C70.2217 265.898 71.9027 262.964 73.6121 260.047L72.7493 259.541ZM62.817 277.272L61.9352 276.801C60.3345 279.793 58.7628 282.802 57.2204 285.825L58.1112 286.28L59.002 286.734C60.5385 283.722 62.1042 280.725 63.6988 277.744L62.817 277.272ZM48.3212 304.14C49.7451 301.059 51.1987 297.992 52.6818 294.939L53.5813 295.376L54.4807 295.813C53.0033 298.854 51.5552 301.909 50.1367 304.979L49.229 304.56L48.3212 304.14ZM45.056 313.826L44.1403 313.424C42.777 316.531 41.4436 319.653 40.1404 322.787L41.0638 323.171L41.9872 323.555C43.2854 320.432 44.6137 317.323 45.9718 314.227L45.056 313.826ZM37.2542 332.592L36.3235 332.226C35.0821 335.384 33.871 338.555 32.6905 341.738L33.6281 342.086L34.5657 342.434C35.7417 339.262 36.9482 336.104 38.1848 332.958L37.2542 332.592ZM30.1874 351.648L29.2433 351.318C28.1257 354.521 27.0387 357.737 25.9827 360.964L26.9331 361.275L27.8835 361.586C28.9355 358.371 30.0183 355.168 31.1316 351.977L30.1874 351.648ZM23.8666 370.963L22.9103 370.671C22.414 372.294 21.9255 373.919 21.4448 375.547C20.9641 377.175 20.4914 378.805 20.0268 380.437L20.9886 380.711L21.9503 380.985C22.4132 379.359 22.8841 377.735 23.363 376.113C23.8418 374.491 24.3285 372.872 24.8228 371.256L23.8666 370.963ZM18.3008 390.511L17.3339 390.256C16.4677 393.539 15.6338 396.829 14.8323 400.126L15.804 400.362L16.7756 400.598C17.5741 397.314 18.4048 394.037 19.2677 390.766L18.3008 390.511ZM13.4991 410.259L12.523 410.042C11.7851 413.356 11.0797 416.676 10.4068 420.002L11.3869 420.2L12.3671 420.398C13.0374 417.086 13.7401 413.778 14.4752 410.477L13.4991 410.259ZM9.46846 430.179L8.48465 430C7.87616 433.34 7.30029 436.685 6.75708 440.035L7.74418 440.195L8.73129 440.355C9.27243 437.018 9.8461 433.686 10.4523 430.359L9.46846 430.179ZM6.21493 450.241L5.2249 450.1C4.74672 453.461 4.30127 456.826 3.8886 460.194L4.88118 460.316L5.87376 460.437C6.28486 457.082 6.7286 453.73 7.20496 450.382L6.21493 450.241ZM3.74348 470.414L2.74872 470.312C2.40153 473.688 2.08716 477.068 1.80567 480.45L2.80223 480.533L3.79878 480.616C4.0792 477.246 4.39236 473.88 4.73823 470.516L3.74348 470.414ZM2.05779 490.668L1.05981 490.604C0.844097 493.991 0.661289 497.38 0.511421 500.771L1.51045 500.815L2.50947 500.86C2.65877 497.482 2.84088 494.105 3.05577 490.731L2.05779 490.668ZM1.16041 510.972L0.160711 510.947C0.0767806 514.339 0.0258028 517.733 0.0078125 521.128L1.0078 521.133L2.00778 521.138C2.02571 517.757 2.07649 514.376 2.1601 510.996L1.16041 510.972ZM1.05269 531.295L0.0527895 531.309C0.100752 534.702 0.181689 538.095 0.295636 541.488L1.29507 541.455L2.29451 541.421C2.181 538.041 2.10037 534.661 2.05259 531.281L1.05269 531.295ZM1.73483 551.607L0.736233 551.66C0.915996 555.048 1.12873 558.436 1.37447 561.822L2.37185 561.75L3.36922 561.677C3.12442 558.304 2.9125 554.93 2.73342 551.554L1.73483 551.607ZM3.20581 571.878L2.21003 571.969C2.52129 575.348 2.8655 578.724 3.24268 582.099L4.23649 581.988L5.2303 581.877C4.85456 578.515 4.51167 575.151 4.2016 571.786L3.20581 571.878Z" fill="black"/>
</svg>
