<svg width="202" height="111" viewBox="0 0 202 111" fill="none" xmlns="http://www.w3.org/2000/svg">
<path d="M21.0636 35.1533C22.0479 35.7505 22.9179 36.1384 23.6738 36.3171C25.0315 36.6209 26.3945 36.448 27.7626 35.7982C28.8563 35.2752 29.935 34.4098 30.9986 33.202C31.6285 32.4776 32.1504 31.7677 32.5643 31.0722C34.1555 28.398 34.8601 25.9991 34.678 23.8755C34.5057 21.7578 33.2453 19.9864 30.8967 18.5614L25.7366 15.4306L15.8744 32.0048L21.0636 35.1533ZM24.3082 11.1442L33.0057 16.4214C35.9585 18.2129 37.622 20.6555 37.9962 23.749C38.3175 26.5303 37.595 29.405 35.8289 32.3731C34.465 34.6653 32.8034 36.4769 30.8442 37.8079C27.3869 40.1632 23.8164 40.2233 20.1328 37.9882L11.4645 32.7288L24.3082 11.1442Z" fill="white"/>
<path d="M47.133 32.2138L41.6959 43.0868C41.2779 43.9228 41.0685 44.673 41.0677 45.3372C41.0661 46.5636 41.7311 47.5147 43.0627 48.1905C44.9736 49.1604 46.7028 48.9643 48.2505 47.6024C49.0854 46.8757 49.903 45.7121 50.7034 44.1114L54.7257 36.0675L57.4701 37.4605L49.2801 53.8388L46.6882 52.5233L47.927 50.1225C47.2602 50.5639 46.5555 50.8645 45.8129 51.0244C44.3377 51.3494 42.8531 51.1327 41.3589 50.3744C39.0313 49.193 37.8356 47.6083 37.772 45.6202C37.7326 44.5521 38.0622 43.3196 38.7606 41.9229L44.3276 30.7899L47.133 32.2138Z" fill="white"/>
<path d="M64.9839 40.8939L67.665 42.0602L66.4143 44.9656C66.8772 44.4957 67.7107 44.0441 68.9148 43.6108C70.1234 43.167 71.287 43.1884 72.4054 43.6749C72.4576 43.6976 72.5442 43.7415 72.6652 43.8066C72.7861 43.8716 72.9913 43.9857 73.2809 44.149L71.9965 47.1329C71.8428 47.0288 71.695 46.9396 71.5532 46.8655C71.4218 46.7959 71.2725 46.7247 71.1052 46.652C69.6837 46.0336 68.3931 46.0191 67.2335 46.6085C66.0784 47.1874 65.2439 48.0737 64.7302 49.2672L60.5658 58.9413L57.7437 57.7136L64.9839 40.8939Z" fill="white"/>
<path d="M77.8671 60.8162C77.5628 61.6516 77.6279 62.422 78.0625 63.1273C78.4971 63.8326 79.1318 64.3381 79.9667 64.6438C80.9835 65.0161 82.0541 65.141 83.1784 65.0186C85.0688 64.8245 86.3377 63.8386 86.9853 62.0607L87.8339 59.7312C87.3987 59.8268 86.8755 59.8477 86.2643 59.7938C85.6531 59.74 85.0682 59.6472 84.5096 59.5156L82.6776 59.0997C81.5779 58.8549 80.7112 58.7864 80.0775 58.8943C79.0057 59.0724 78.2689 59.713 77.8671 60.8162ZM86.9974 57.5314C87.6923 57.6887 88.2379 57.5728 88.6343 57.1839C88.8564 56.9739 89.0552 56.6279 89.2308 56.1459C89.5897 55.1606 89.4959 54.319 88.9494 53.6212C88.4175 52.9167 87.4986 52.3254 86.1928 51.8472C84.6835 51.2947 83.4649 51.3098 82.5369 51.8925C82.0198 52.2131 81.5459 52.7982 81.115 53.6479L78.4177 52.6604C79.2436 50.5594 80.4651 49.3375 82.0821 48.9948C83.7136 48.6454 85.4018 48.79 87.1465 49.4288C89.1695 50.1695 90.6721 51.1566 91.6542 52.3902C92.6257 53.6198 92.8149 55.0486 92.2219 56.6766L88.6114 66.5889C88.5021 66.8888 88.4732 67.1513 88.5246 67.3765C88.5868 67.6056 88.8158 67.7927 89.2119 67.9377C89.3403 67.9847 89.4868 68.0322 89.6512 68.0803C89.8196 68.1177 90.0006 68.1536 90.1943 68.1881L89.416 70.3248C88.9196 70.2887 88.5478 70.2436 88.3006 70.1895C88.0535 70.1355 87.7265 70.034 87.3198 69.885C86.3243 69.5206 85.7305 68.9026 85.5385 68.0312C85.4395 67.5701 85.4667 66.9792 85.6201 66.2585C84.7505 66.8141 83.661 67.1738 82.3518 67.3378C81.0425 67.5018 79.7243 67.3409 78.397 66.8549C76.8021 66.271 75.6718 65.3109 75.0061 63.9747C74.3549 62.6317 74.2947 61.2319 74.8252 59.7753C75.4065 58.1795 76.3548 57.1247 77.6702 56.6109C78.9855 56.0971 80.4884 56.0344 82.1788 56.4226L86.9974 57.5314Z" fill="white"/>
<path d="M103.323 48.245L106.197 49.0762L103.658 57.8283C104.548 57.1722 105.506 56.755 106.531 56.5768C107.559 56.3876 108.599 56.445 109.65 56.7489C111.84 57.3822 113.395 58.6505 114.314 60.5538C115.248 62.4493 115.289 64.864 114.438 67.7978C113.631 70.5783 112.287 72.6934 110.407 74.1431C108.526 75.5927 106.392 75.9724 104.005 75.2822C102.669 74.8959 101.635 74.2469 100.903 73.335C100.466 72.7936 100.059 72.0111 99.679 70.9877L99.0262 73.2373L96.2996 72.4489L103.323 48.245ZM104.582 72.6191C106.181 73.0814 107.559 72.7916 108.716 71.7497C109.883 70.7109 110.769 69.1516 111.373 67.0717C111.909 65.2216 111.955 63.5735 111.508 62.1272C111.072 60.6841 110.082 59.7394 108.538 59.2929C107.191 58.9035 105.864 59.0596 104.557 59.7613C103.26 60.4662 102.28 61.9626 101.616 64.2505C101.136 65.9035 100.955 67.3047 101.073 68.4541C101.288 70.6165 102.458 72.0048 104.582 72.6191Z" fill="white"/>
<path d="M124.587 61.2654L127.635 61.9739L123.456 79.7148L120.408 79.0063L124.587 61.2654ZM126.167 54.5585L129.215 55.267L128.415 58.6621L125.367 57.9535L126.167 54.5585Z" fill="white"/>
<path d="M137.518 57.0467L140.539 57.6372L135.616 82.2669L132.595 81.6764L137.518 57.0467Z" fill="white"/>
<path d="M147.663 65.9021L150.753 66.3935L147.792 84.3777L144.702 83.8863L147.663 65.9021ZM148.782 59.1032L151.873 59.5946L151.306 63.0362L148.216 62.5448L148.782 59.1032Z" fill="white"/>
<path d="M160.435 62.5308L163.526 62.8872L162.905 67.9616L165.809 68.2965L165.504 70.7913L162.599 70.4564L161.147 82.3193C161.07 82.9529 161.233 83.402 161.637 83.6666C161.86 83.8184 162.248 83.9264 162.803 83.9903C162.95 84.0073 163.109 84.0256 163.279 84.0452C163.45 84.0534 163.65 84.0593 163.879 84.0628L163.584 86.4727C163.221 86.5341 162.844 86.5652 162.453 86.5661C162.074 86.5682 161.664 86.5439 161.222 86.4929C159.795 86.3284 158.871 85.8547 158.451 85.0719C158.031 84.2777 157.893 83.2979 158.035 82.1326L159.508 70.0999L157.045 69.816L157.351 67.3212L159.813 67.6052L160.435 62.5308Z" fill="white"/>
<path d="M187.252 69.9539L190.649 70.1512C190.138 71.2975 188.997 73.9143 187.227 78.0016C185.901 81.0758 184.796 83.5805 183.912 85.5158C181.824 90.0756 180.382 92.8461 179.585 93.8274C178.788 94.8086 177.502 95.2477 175.727 95.1445C175.294 95.1194 174.96 95.0828 174.723 95.0348C174.498 94.9875 174.218 94.9084 173.882 94.7976L174.07 91.9998C174.595 92.1787 174.976 92.2922 175.212 92.3402C175.449 92.3882 175.658 92.4175 175.84 92.4281C176.409 92.4611 176.831 92.3886 177.106 92.2105C177.391 92.0444 177.634 91.8301 177.834 91.5678C177.897 91.4801 178.134 91.0257 178.543 90.2046C178.952 89.3835 179.25 88.7728 179.437 88.3727L173.938 69.1802L177.421 69.3825L181.322 84.5432L187.252 69.9539Z" fill="white"/>
</svg>
